<?xml version="1.0" encoding="UTF-8"?>
<svg width="286px" height="225px" viewBox="0 0 286 225" version="1.1" xmlns="http://www.w3.org/2000/svg" xmlns:xlink="http://www.w3.org/1999/xlink">
    <!-- Generator: Sketch 52.4 (67378) - http://www.bohemiancoding.com/sketch -->
    <title>ico_2</title>
    <desc>Created with Sketch.</desc>
    <defs>
        <linearGradient x1="100%" y1="50%" x2="5.32155094%" y2="50%" id="linearGradient-1">
            <stop stop-color="#FFEB3F" offset="0%"></stop>
            <stop stop-color="#F18C35" offset="100%"></stop>
        </linearGradient>
    </defs>
    <g id="🎉Design" stroke="none" stroke-width="1" fill="none" fill-rule="evenodd">
        <g id="ThaMadAd_homepage" transform="translate(-1287.000000, -1790.000000)">
            <g id="Group-3-Copy" transform="translate(439.000000, 1790.000000)">
                <g id="ico_2" transform="translate(848.000000, 0.000000)">
                    <g id="Group" transform="translate(94.000000, 55.000000)">
                        <path d="M151.432785,0 L2.56721489,0 C1.14907822,0 0,1.14409667 0,2.5549156 L0,84.3332716 C0,85.7440905 1.14907822,86.8881872 2.56721489,86.8881872 L77,86.8881872 L77,89.4442729 C77,90.8550915 78.1490782,91.9991885 79.5672149,91.9991885 L87.2665099,91.9991885 L87.2665099,130.332281 C87.247711,134.54836 90.6655732,137.98065 94.8988341,137.999367 C96.8221894,138.007556 98.6785737,137.296298 100.100235,136.005972 C103.22789,138.847496 108.077988,138.625228 110.93071,135.511133 C112.227829,134.095634 112.942185,132.247298 112.93396,130.332281 L112.93396,86.8881872 L151.43396,86.8881872 C152.850922,86.8881872 154,85.7440905 154,84.3332716 L154,2.5549156 C154,1.14409667 152.850922,1.70233128e-14 151.432785,0 Z M87.2665099,86.8881872 L82.1332549,86.8881872 L82.1332549,71.5551843 L87.2665099,71.5551843 L87.2665099,86.8881872 Z M107.79953,130.332281 C107.79953,131.744269 106.650452,132.888366 105.23349,132.888366 C103.815353,132.888366 102.666275,131.744269 102.666275,130.332281 L102.666275,104.777276 L97.53302,104.777276 L97.53302,130.332281 C97.53302,131.7431 96.3839415,132.888366 94.9658051,132.888366 C93.5488433,132.888366 92.3997651,131.744269 92.3997651,130.332281 L92.3997651,97.1101894 L107.79953,97.1101894 L107.79953,130.332281 Z M107.79953,84.3332716 L107.79953,91.9991885 L92.3997651,91.9991885 L92.3997651,71.5551843 L107.79953,71.5551843 L107.79953,84.3332716 Z M94.96698,61.3331821 C94.96698,58.5103748 97.2651367,56.2221812 100.100235,56.2221812 C102.935333,56.2221812 105.23349,58.5103748 105.23349,61.3331821 C105.23349,64.1559894 102.935333,66.4441834 100.100235,66.4441834 C97.2651367,66.4441834 94.96698,64.1559894 94.96698,61.3331821 Z M118.06604,81.7771863 L112.932785,81.7771863 L112.932785,53.6660958 C112.932785,52.2552769 114.081863,51.1111802 115.5,51.1111802 C116.916962,51.1111802 118.06604,52.2552769 118.06604,53.6660958 L118.06604,81.7771863 Z M148.866745,81.7771863 L123.20047,81.7771863 L123.20047,53.6660958 C123.20047,49.4324696 119.75206,46.000179 115.5,46.000179 C111.24794,46.000179 107.79953,49.4324696 107.79953,53.6660958 L107.79953,54.6429066 C104.127884,50.3788645 97.6810606,49.8875346 93.3996278,53.5432631 C89.6363374,56.7556251 88.7339936,62.1965191 91.260086,66.4441834 L79.5672149,66.4441834 C78.1490782,66.4441834 77,67.5882801 77,68.999099 L77,81.7771863 L5.13325493,81.7771863 L5.13325493,5.11100096 L148.866745,5.11100096 L148.866745,81.7771863 Z" id="Shape" fill="#373634" fill-rule="nonzero"></path>
                        <path d="M54.4418196,34.369009 L21,67.4064682 L24.6375146,71 L56.2611657,39.758725 L75.0222161,58.2929269 C75.9195245,59.1828756 77.3408519,59.2910657 78.3665158,58.5476966 L112.855195,33.5581668 L112.855195,41.248953 L118,41.248953 L118,28.5418802 C118,27.1377386 116.848336,26 115.427009,26 L99.9925946,26 L99.9925946,31.0825968 L107.567905,31.0825968 L77.0970948,53.1591438 L58.076979,34.369009 C57.0725116,33.3790135 55.446287,33.3790135 54.4418196,34.369009 Z" id="Path" fill="url(#linearGradient-1)"></path>
                        <path d="M125.499428,31 L140.499428,31 C141.880751,31 143,29.8807266 143,28.5005186 L143,13.5001969 C143,12.1188442 141.879606,10.9995708 140.499428,11.0007155 C139.836805,11.0007155 139.200504,11.2639391 138.732433,11.7320196 L133,17.4645758 L127.267567,11.7320196 C126.290227,10.7558028 124.707485,10.7558028 123.731289,11.7331642 C123.263218,12.2012447 123,12.8364152 123,13.5001969 L123,28.5005186 C123,29.8807266 124.119249,31 125.499428,31 Z M128,19.5348879 L131.231861,22.7679624 C132.208057,23.7441792 133.790799,23.7441792 134.766995,22.7679624 L138,19.5348879 L138,25.9998926 L128,25.9998926 L128,19.5348879 Z" id="Shape" fill="#373634" fill-rule="nonzero"></path>
                        <path d="M20.4994277,49 C24.6422521,49 28,45.6422523 28,41.5005722 C28,37.3577477 24.6422521,34 20.4994277,34 C16.3577476,34 13,37.3577477 13,41.5005722 C13,45.6422523 16.3577476,49 20.4994277,49 Z M20.4994277,39 C21.8807507,39 22.9999998,40.1192491 22.9999998,41.5005722 C22.9999998,42.8807509 21.8807507,44 20.4994277,44 C19.1192493,44 17.9999999,42.8807509 17.9999999,41.5005722 C17.9999999,40.1192491 19.1192493,39 20.4994277,39 Z" id="Shape" fill="#373634" fill-rule="nonzero"></path>
                        <path d="M48.4994277,28 C52.6411077,28 56,24.6422521 56,20.4994277 C56,16.3577476 52.6411077,13 48.4994277,13 C44.3577479,13 41,16.3577476 41,20.4994277 C41,24.6422521 44.3577479,28 48.4994277,28 Z M48.4994277,17.9999999 C49.8807507,17.9999999 51.0000001,19.1192493 51.0000001,20.4994277 C51.0000001,21.8807507 49.8807507,22.9999998 48.4994277,22.9999998 C47.1192493,22.9999998 45.9999999,21.8807507 45.9999999,20.4994277 C45.9999999,19.1192493 47.1192493,17.9999999 48.4994277,17.9999999 Z" id="Shape" fill="#373634" fill-rule="nonzero"></path>
                        <path d="M62.4994277,120 C66.6411077,120 70,116.642252 70,112.499428 C70,108.357748 66.6411077,105 62.4994277,105 C58.3577479,105 55,108.357748 55,112.499428 C55,116.642252 58.3577479,120 62.4994277,120 Z M62.4994277,110 C63.8807507,110 65.0000001,111.119249 65.0000001,112.499428 C65.0000001,113.880751 63.8807507,115 62.4994277,115 C61.1192493,115 59.9999999,113.880751 59.9999999,112.499428 C59.9999999,111.119249 61.1192493,110 62.4994277,110 Z" id="Shape-Copy" fill="#373634" fill-rule="nonzero"></path>
                        <path d="M143.545172,103 L129.455645,103 C126.444168,103.004087 124.004087,105.444168 124,108.455645 L124,122.545172 C124.004087,125.555832 126.444168,127.99673 129.455645,128 L143.545172,128 C146.555832,127.99673 148.995913,125.555832 149,122.545172 L149,108.455645 C148.99673,105.444168 146.556649,103.004087 143.545172,103 Z M145.428571,122.545172 C145.427754,123.584966 144.584966,124.427754 143.545172,124.428571 L138.285714,124.428571 L138.285714,120.857143 L141.857143,120.857143 L141.857143,117.285714 L138.285714,117.285714 L138.285714,115.387601 C138.286532,114.463885 139.035314,113.715103 139.95903,113.714286 L141.857143,113.714286 L141.857143,110.142857 L139.95903,110.142857 C137.06363,110.146127 134.717556,112.492202 134.714286,115.387601 L134.714286,124.428571 L129.455645,124.428571 C128.415035,124.427754 127.572246,123.584966 127.571429,122.545172 L127.571429,108.455645 C127.572246,107.415034 128.415035,106.572246 129.455645,106.571429 L143.545172,106.571429 C144.584966,106.572246 145.427754,107.415034 145.428571,108.455645 L145.428571,122.545172 Z" id="Shape" fill="url(#linearGradient-1)" fill-rule="nonzero"></path>
                        <path d="M37.9935425,111.114111 C37.9413591,110.41225 37.578303,109.765389 36.994104,109.340361 L34.344208,107.411389 C33.7103711,104.329861 30.8937429,102 27.5253712,102 C23.7245776,102 20.624441,104.96725 20.5748032,108.632694 C18.5412434,108.291389 16.5974136,107.541861 14.8572261,106.416194 L13.9697909,105.840833 C13.1918135,105.336056 12.1825111,105.281056 11.3498048,105.708222 C10.519644,106.132028 10.0000378,106.962833 10.0000378,107.866361 L10.0000378,109.871722 C10.0000378,112.817583 10.9247014,115.627167 12.64007,117.986972 L10.736014,119.837111 C10.0127655,120.53775 9.80116835,121.587028 10.19668,122.497583 C10.5915552,123.406917 11.5187643,124 12.5455672,124 L24.8805661,124 C29.8001198,124 33.8669212,120.399028 34.4138918,115.7775 L37.2652029,113.007333 C37.779718,112.507139 38.0457259,111.817194 37.9935425,111.114111 Z M30.5330504,112.9931 C30.0664938,113.4419 29.8058634,114.0491 29.8058634,114.6806 C29.8058634,117.062 27.8088501,119 25.3553407,119 L18.9571642,119 C19.3551835,118.1258 19.1832115,117.071 18.4390474,116.3528 C17.2651104,115.2185 16.425057,113.7911 16,112.2524 C18.3997485,113.2181 20.9787,113.7197 23.6167571,113.7197 C25.0069952,113.7197 26.1318871,112.6451 26.1318871,111.3197 L26.1318871,108.8 C26.1318871,107.8073 26.9571642,107 27.9691897,107 C28.9812151,107 29.8064922,107.8073 29.8064922,108.8 C29.8064922,109.5512 30.1749587,110.2589 30.8012261,110.7125 L32,111.5786 L30.5330504,112.9931 Z" id="Shape" fill="url(#linearGradient-1)" fill-rule="nonzero"></path>
                        <polygon id="Path" fill="#373634" points="73.6562394 30 77 26.6571405 80.3437606 30 84 26.3434512 80.6562394 23.0005917 84 19.6565485 80.3437606 16 77 19.3440432 73.6562394 16 70 19.6565485 73.3437606 23.0005917 70 26.3434512"></polygon>
                        <polygon id="Path" fill="#373634" points="60.3434515 57 57.000592 60.3428595 53.6565488 57 50 60.6565485 53.3440435 63.999408 50 67.3434515 53.6565488 71 57.000592 67.6559568 60.3434515 71 64 67.3434515 60.6571405 63.999408 64 60.6565485"></polygon>
                    </g>
                    <rect id="Rectangle" stroke="#373634" stroke-width="5" fill-rule="nonzero" x="2.5" y="2.5" width="281" height="220"></rect>
                </g>
            </g>
        </g>
    </g>
</svg>