<?xml version="1.0" encoding="UTF-8"?>
<svg width="286px" height="225px" viewBox="0 0 286 225" version="1.1" xmlns="http://www.w3.org/2000/svg" xmlns:xlink="http://www.w3.org/1999/xlink">
    <!-- Generator: Sketch 52.4 (67378) - http://www.bohemiancoding.com/sketch -->
    <title>ico_3</title>
    <desc>Created with Sketch.</desc>
    <defs>
        <linearGradient x1="100%" y1="50%" x2="5.32155094%" y2="50%" id="linearGradient-1">
            <stop stop-color="#FFEB3F" offset="0%"></stop>
            <stop stop-color="#F18C35" offset="100%"></stop>
        </linearGradient>
    </defs>
    <g id="🎉Design" stroke="none" stroke-width="1" fill="none" fill-rule="evenodd">
        <g id="ThaMadAd_homepage" transform="translate(-373.000000, -2115.000000)">
            <g id="Group-3-Copy-2" transform="translate(373.000000, 2115.000000)">
                <g id="ico_3">
                    <g id="Group" transform="translate(57.000000, 48.000000)">
                        <path d="M36.9995259,8 C20.9834045,8 8,20.9843525 8,37.0004741 C8,53.0165955 20.9834045,66 36.9995259,66 C53.0156472,66 66,53.0165955 66,37.0004741 C65.9829304,20.9909908 53.0090092,8.01706958 36.9995259,8 Z M36.9995259,61.8577525 C23.2716928,61.8577525 12.1431958,50.7283072 12.1431958,37.0004741 C12.1431958,23.2716928 23.2716928,12.1431958 36.9995259,12.1431958 C50.7283072,12.1431958 61.8568042,23.2716928 61.8568042,37.0004741 C61.8416312,50.7226172 50.721669,61.8425794 36.9995259,61.8577525 Z" id="Shape" fill="url(#linearGradient-1)" fill-rule="nonzero"></path>
                        <path d="M121.932796,43.40828 L113.666819,43.40828 L113.666819,37.2088442 C113.666819,36.0669672 112.741544,35.1417347 111.600561,35.1417347 L103.25322,35.1417347 C102.415931,25.7929136 94.5870465,18.6247273 85.1999539,18.6105365 L69.3699968,18.6105365 C59.120071,0.828666216 36.3940729,-5.27805724 18.6113885,4.9723453 C0.828704152,15.2218016 -5.27829887,37.9467596 4.97257293,55.72863 C5.94515218,57.4154288 7.04829155,59.0227601 8.27253053,60.5364328 L8.27253053,124 L12.4050462,124 L12.4050462,64.8541843 C17.6265102,69.5550841 24.0769432,72.6732499 31.0042053,73.8444543 L31.0042053,86.8033848 L18.6047658,86.8033848 L18.6047658,90.9366575 L24.8044854,90.9366575 L24.8044854,99.2022566 L18.6047658,99.2022566 L18.6047658,103.335529 L24.8044854,103.335529 L24.8044854,111.601128 L18.6047658,111.601128 L18.6047658,115.734401 L24.8044854,115.734401 L24.8044854,124 L28.9379474,124 L28.9379474,90.9366575 L45.4699023,90.9366575 L45.4699023,124 L49.6033643,124 L49.6033643,88.8704943 C49.6033643,87.7286173 48.6780894,86.8033848 47.5371065,86.8033848 L43.4036445,86.8033848 L43.4036445,73.8444543 C49.6809435,72.7905598 55.580753,70.1359561 60.5335277,66.1389141 L70.268781,66.1389141 L70.268781,62.0056416 L64.8505306,62.0056416 C74.4987439,51.316274 77.077782,36.0035821 71.4636911,22.7428631 L82.6682204,22.7428631 L82.6682204,37.2078979 C82.6682204,38.3497749 83.5934951,39.2750074 84.7354243,39.2750074 L99.2011216,39.2750074 L99.2011216,124 L103.334583,124 L103.334583,39.2750074 L109.533357,39.2750074 L109.533357,124 L113.666819,124 L113.666819,47.5406065 L119.866538,47.5406065 L119.866538,124 L124,124 L124,45.4744432 C124,44.3335125 123.074725,43.40828 121.932796,43.40828 Z M39.2711288,86.8033848 L35.137667,86.8033848 L35.137667,74.2995021 C35.8254736,74.3392361 36.5057113,74.4045132 37.2039249,74.4045132 C37.9030845,74.4045132 38.5823762,74.3392361 39.2711288,74.2995021 L39.2711288,86.8033848 Z M37.2039249,70.2721866 C18.9434657,70.2721866 4.13906879,55.4694134 4.13906879,37.2088442 C4.13906879,18.9482747 18.9425197,4.1455017 37.2039249,4.1455017 C55.4653301,4.1455017 70.268781,18.9482747 70.268781,37.2088442 C70.2470209,55.459953 55.4568153,70.2504275 37.2039249,70.2721866 Z M86.8016822,35.1417347 L86.8016822,22.8421978 C93.2577919,23.59525 98.3486954,28.6868667 99.1017821,35.1417347 L86.8016822,35.1417347 Z" id="Shape" fill="#373634" fill-rule="nonzero"></path>
                        <polygon id="Path" fill="url(#linearGradient-1)" points="23 37 27 37 27 49 23 49"></polygon>
                        <polygon id="Path" fill="url(#linearGradient-1)" points="31 31 35 31 35 50 31 50"></polygon>
                        <polygon id="Path" fill="url(#linearGradient-1)" points="39 25 43 25 43 50 39 50"></polygon>
                        <polygon id="Path" fill="url(#linearGradient-1)" points="48 33 52 33 52 49 48 49"></polygon>
                        <polygon id="Path" fill="#373634" points="82 49 92 49 92 53 82 53"></polygon>
                        <polygon id="Path" fill="#373634" points="82 62 92 62 92 66 82 66"></polygon>
                        <polygon id="Path" fill="#373634" points="82 74 92 74 92 78 82 78"></polygon>
                        <polygon id="Path" fill="#373634" points="82 87 92 87 92 91 82 91"></polygon>
                        <polygon id="Path" fill="#373634" points="82 99 92 99 92 103 82 103"></polygon>
                        <polygon id="Path" fill="#373634" points="82 111 92 111 92 115 82 115"></polygon>
                        <polygon id="Path-Copy" fill="#373634" points="72 132 82 132 82 136 72 136"></polygon>
                        <polygon id="Path-Copy-5" fill="#373634" points="115 132 125 132 125 136 115 136"></polygon>
                        <polygon id="Path-Copy-3" fill="#373634" points="29 132 39 132 39 136 29 136"></polygon>
                        <polygon id="Path" fill="#373634" points="60 74 70 74 70 78 60 78"></polygon>
                        <polygon id="Path" fill="#373634" points="60 87 70 87 70 91 60 91"></polygon>
                        <polygon id="Path" fill="#373634" points="60 99 70 99 70 103 60 103"></polygon>
                        <polygon id="Path" fill="#373634" points="60 111 70 111 70 115 60 115"></polygon>
                        <polygon id="Path-Copy-2" fill="#373634" points="51 132 61 132 61 136 51 136"></polygon>
                        <polygon id="Path-Copy-6" fill="#373634" points="94 132 104 132 104 136 94 136"></polygon>
                        <polygon id="Path-Copy-4" fill="#373634" points="8 132 18 132 18 136 8 136"></polygon>
                        <polygon id="Path" fill="#373634" points="19 74 27 74 27 78 19 78"></polygon>
                    </g>
                    <rect id="Rectangle" stroke="#373634" stroke-width="5" fill-rule="nonzero" x="2.5" y="2.5" width="281" height="220"></rect>
                </g>
            </g>
        </g>
    </g>
</svg>