<?xml version="1.0" encoding="UTF-8"?>
<svg width="286px" height="225px" viewBox="0 0 286 225" version="1.1" xmlns="http://www.w3.org/2000/svg" xmlns:xlink="http://www.w3.org/1999/xlink">
    <!-- Generator: Sketch 52.4 (67378) - http://www.bohemiancoding.com/sketch -->
    <title>ico_1</title>
    <desc>Created with Sketch.</desc>
    <defs>
        <linearGradient x1="100%" y1="50%" x2="5.32155094%" y2="50%" id="linearGradient-1">
            <stop stop-color="#FFEB3F" offset="0%"></stop>
            <stop stop-color="#F18C35" offset="100%"></stop>
        </linearGradient>
    </defs>
    <g id="🎉Design" stroke="none" stroke-width="1" fill="none" fill-rule="evenodd">
        <g id="ThaMadAd_homepage" transform="translate(-373.000000, -1465.000000)">
            <g id="ico_1" transform="translate(373.000000, 1465.000000)">
                <g id="Group" transform="translate(39.000000, 38.000000)">
                    <path d="M138.941277,93.6 L123.35284,93.6 C119.131757,93.6047956 115.710595,97.0858311 115.705882,101.382125 L115.705882,113.317275 C115.710595,117.613569 119.131757,121.094605 123.35284,121.1 L138.941277,121.1 C143.16236,121.094605 146.583523,117.613569 146.588235,113.317275 L146.588235,101.382125 C146.583523,97.0858311 143.16236,93.6047956 138.941277,93.6 Z M144.014706,113.317275 C144.011172,116.167684 141.741588,118.477384 138.941277,118.480981 L123.35284,118.480981 C120.552529,118.477384 118.282946,116.167684 118.279412,113.317275 L118.279412,101.382125 C118.282946,98.5317167 120.552529,96.2226158 123.35284,96.2184196 L138.941277,96.2184196 C141.741588,96.2226158 144.011172,98.5317167 144.014706,101.382125 L144.014706,113.317275 Z" id="Shape" fill="#373634" fill-rule="nonzero"></path>
                    <path d="M123.301001,43.9996978 L107.646998,43.9996978 L107.646998,34.1456207 C107.641546,28.6548188 103.180268,24.2054382 97.6747849,24.2 L50.1193327,24.2 C44.6138493,24.2054382 40.1525721,28.6548188 40.1471195,34.1456207 L40.1471195,43.9996978 L24.4931166,43.9996978 C18.8867568,44.0051362 14.3436881,48.5369965 14.3382353,54.1274994 L14.3382353,69.5122589 C14.3436881,75.1036681 18.8867568,79.6346221 24.4931166,79.6400605 L40.1471195,79.6400605 L40.1471195,133.054379 C40.1525721,138.545181 44.6138493,142.994562 50.1193327,143 L97.6747849,143 C103.180268,142.994562 107.641546,138.545181 107.646998,133.054379 L107.646998,79.6400605 L123.301001,79.6400605 C128.907361,79.6346221 133.450429,75.1036681 133.455882,69.5122589 L133.455882,54.1274994 C133.450429,48.5369965 128.907361,44.0051362 123.301001,43.9996978 Z M44.1176471,34.1456207 C44.1212822,30.8409882 46.8058643,28.163565 50.1193327,28.1599395 L97.6747849,28.1599395 C100.988253,28.163565 103.672835,30.8409882 103.676471,34.1456207 L103.676471,36.0798188 L44.1176471,36.0798188 L44.1176471,34.1456207 Z M18.3087629,54.1274994 C18.3123981,50.7222596 21.0787716,47.9632628 24.4931166,47.9596376 L51.8305947,47.9596376 C55.2440307,47.9632628 58.011313,50.7222596 58.0140395,54.1274994 L58.0140395,59.8403624 L47.8891486,59.8403624 C46.798594,54.4818908 41.5584789,51.0195497 36.1865885,52.1081025 C32.2796767,52.8993652 29.2270324,55.9438691 28.433654,59.8403624 L18.3087629,59.8403624 L18.3087629,54.1274994 Z M44.1176471,61.819879 C44.1176471,65.1000396 41.4512409,67.7602417 38.1614013,67.7602417 C34.8724702,67.7602417 32.2060641,65.1000396 32.2060641,61.819879 C32.2060641,58.5397187 34.8724702,55.8804229 38.1614013,55.8804229 C41.4512409,55.8804229 44.1176471,58.5397187 44.1176471,61.819879 Z M24.4931166,75.680121 C21.0787716,75.6764952 18.3123981,72.9174989 18.3087629,69.5122589 L18.3087629,63.8003022 L28.433654,63.8003022 C29.5251174,69.1578673 34.7643235,72.6202089 40.1371227,71.5316558 C44.0431259,70.7403931 47.0966789,67.6958892 47.8900573,63.8003022 L58.0149482,63.8003022 L58.0149482,69.5122589 C58.011313,72.9174989 55.2449395,75.6764952 51.8305947,75.680121 L24.4931166,75.680121 Z M103.676471,133.054379 C103.672835,136.359012 100.988253,139.036435 97.6747849,139.04006 L50.1193327,139.04006 C46.8058643,139.036435 44.1212822,136.359012 44.1176471,133.054379 L44.1176471,131.120181 L103.676471,131.120181 L103.676471,133.054379 Z M103.676471,127.160242 L44.1176471,127.160242 L44.1176471,79.6400605 L51.8305947,79.6400605 C57.4360455,79.6346221 61.9800232,75.1036681 61.9854758,69.5122589 L61.9854758,54.1274994 C61.9800232,48.5369965 57.4369543,44.0051362 51.8305947,43.9996978 L44.1176471,43.9996978 L44.1176471,40.0397583 L103.676471,40.0397583 L103.676471,43.9996978 L95.9635229,43.9996978 C90.3571634,44.0051362 85.8140945,48.53609 85.8086418,54.1274994 L85.8086418,69.5122589 C85.8140945,75.1036681 90.3571634,79.6346221 95.9635229,79.6400605 L103.676471,79.6400605 L103.676471,127.160242 Z M129.485355,69.5122589 C129.48172,72.9174989 126.715346,75.6764952 123.301001,75.680121 L95.9635229,75.680121 C92.5491782,75.6764952 89.7828046,72.9174989 89.7791694,69.5122589 L89.7791694,54.1274994 C89.7828046,50.7222596 92.5491782,47.9632628 95.9635229,47.9596376 L123.301001,47.9596376 C126.715346,47.9632628 129.48172,50.7222596 129.485355,54.1274994 L129.485355,69.5122589 Z" id="Shape" fill="#373634" fill-rule="nonzero"></path>
                    <path d="M134.594922,0.542556113 C133.869598,-0.180852038 132.693602,-0.180852038 131.968277,0.542556113 L115.250939,17.2165639 C114.902307,17.5642749 114.706733,18.0349565 114.705882,18.5259922 L114.705882,33.3478036 C114.705882,34.3705825 115.537498,35.2 116.563837,35.2 L131.42407,35.2 C131.917257,35.2 132.389186,35.0049428 132.737818,34.6572318 L149.456006,17.983224 C150.181331,17.2598158 150.181331,16.0877757 149.456006,15.3635195 L134.594922,0.542556113 Z M130.655379,31.4947592 L118.421791,31.4947592 L118.421791,19.2935004 L133.282025,4.47168879 L145.515613,16.6737958 L130.655379,31.4947592 Z" id="Shape" fill="#373634" fill-rule="nonzero"></path>
                    <polygon id="Path" fill="#373634" points="124.632353 18.7 127.941176 18.7 127.941176 22 124.632353 22"></polygon>
                    <polygon id="Path" fill="#373634" points="130.147059 13.2 133.455882 13.2 133.455882 24.2 130.147059 24.2"></polygon>
                    <polygon id="Path" fill="#373634" points="135.661765 15.4 138.970588 15.4 138.970588 18.7 135.661765 18.7"></polygon>
                    <path d="M84.7054713,83.6 L64.1927778,83.6 C59.8084217,83.6059347 56.2559505,87.1489326 56.25,91.5215968 L56.25,111.97959 C56.2559505,116.351067 59.8084217,119.895252 64.1927778,119.9 L84.7054713,119.9 C89.0886374,119.895252 92.6411084,116.351067 92.6470588,111.97959 L92.6470588,91.5215968 C92.6422984,87.1489326 89.0898275,83.6059347 84.7054713,83.6 Z M87.4474791,111.97959 C87.4462887,113.48937 86.2192881,114.713099 84.7054713,114.714286 L77.0483193,114.714286 L77.0483193,109.528571 L82.247899,109.528571 L82.247899,104.342857 L77.0483193,104.342857 L77.0483193,101.586796 C77.0495093,100.245561 78.1396481,99.1583298 79.4844695,99.1571429 L82.247899,99.1571429 L82.247899,93.9714284 L79.4844695,93.9714284 C75.2691084,93.9761764 71.8535,97.3826766 71.8487395,101.586796 L71.8487395,114.714286 L64.1927778,114.714286 C62.677771,114.713099 61.4507701,113.48937 61.44958,111.97959 L61.44958,91.5215968 C61.4507701,90.01063 62.677771,88.7869011 64.1927778,88.7857142 L84.7054713,88.7857142 C86.2192881,88.7869011 87.4462887,90.01063 87.4474791,91.5215968 L87.4474791,111.97959 Z" id="Shape" fill="url(#linearGradient-1)" fill-rule="nonzero"></path>
                    <path d="M118.257971,59.9530782 L106.677765,52.0333764 C105.790717,51.4261206 104.592674,51.671742 104.00072,52.5808129 C103.78956,52.906193 103.676471,53.2886736 103.676471,53.6802176 L103.676471,69.5196214 C103.676471,70.6135881 104.540546,71.5 105.606063,71.5 C105.987741,71.5 106.360584,71.383987 106.677765,71.1673691 L118.257971,63.247667 C119.145018,62.6413177 119.384451,61.4113982 118.79338,60.5014212 C118.652018,60.2838968 118.470014,60.0971882 118.257971,59.9530782 Z M107.536539,65.818987 L107.536539,57.380852 L113.71318,61.5999194 L107.536539,65.818987 Z" id="Shape" fill="url(#linearGradient-1)" fill-rule="nonzero"></path>
                    <path d="M135.559104,109.254532 L133.573735,109.254532 L133.573735,106.716228 L134.235323,106.716228 C136.062565,106.716228 137.544472,105.295731 137.544472,103.543494 C137.544472,101.790676 136.062565,100.370179 134.235323,100.370179 L132.552274,100.370179 C131.730742,99.4824406 130.522072,99.0164944 129.288563,99.1123561 C127.18566,99.323833 125.599547,101.040049 125.632868,103.06709 L125.632868,111.6656 C125.632868,113.839048 127.469804,115.6 129.73568,115.6 L135.559104,115.6 C137.386345,115.6 138.867647,114.179503 138.867647,112.427266 C138.867647,110.675029 137.386345,109.254532 135.559104,109.254532 Z M135.559104,113.061696 L129.73568,113.061696 C128.931718,113.061696 128.279824,112.437142 128.279824,111.6656 L128.279824,103.06709 C128.247714,102.364104 128.771168,101.750007 129.495764,101.639621 L129.603605,101.639621 C130.072532,101.643107 130.504503,101.884214 130.738966,102.274052 C130.975248,102.666213 131.411459,102.907901 131.883416,102.908482 L134.235323,102.908482 C134.60065,102.908482 134.89691,103.192582 134.89691,103.542913 C134.89691,103.893244 134.60065,104.177344 134.235323,104.177344 L132.249955,104.177344 C131.5193,104.177344 130.92678,104.745542 130.92678,105.446786 L130.92678,110.523393 C130.92678,111.224636 131.5193,111.792835 132.249955,111.792835 L135.559104,111.792835 C135.924431,111.792835 136.220691,112.076935 136.220691,112.427266 C136.220691,112.777597 135.924431,113.061696 135.559104,113.061696 Z" id="Shape" fill="#373634" fill-rule="nonzero"></path>
                    <path d="M9.92647059,24.8233833 L9.92647059,32.244337 C9.92647059,33.2694102 10.765869,34.1 11.8018138,34.1 L26.8011271,34.1 C27.8362137,34.1 28.6764706,33.2694102 28.6764706,32.244337 L28.6764706,24.8233833 C28.6747539,21.7388212 27.1238407,18.8563864 24.537841,17.1332098 C27.5032008,14.2720068 27.5624221,9.57297545 24.6700161,6.63958418 C21.7776103,3.70534348 17.0296016,3.64674344 14.0651002,6.50879592 C11.0997403,9.36999898 11.0405188,14.0690303 13.9329248,17.0024218 C13.975839,17.046584 14.0204694,17.0907463 14.0651002,17.1332098 C11.4791003,18.8563864 9.92818704,21.7388212 9.92647059,24.8233833 Z M19.3014706,8.12581306 C21.3725018,8.12581306 23.0512989,9.78699242 23.0512989,11.8362898 C23.0512989,13.8855872 21.3725018,15.5467668 19.3014706,15.5467668 C17.2304393,15.5467668 15.5516421,13.8855872 15.5516421,11.8362898 C15.5516421,9.78699242 17.2304393,8.12581306 19.3014706,8.12581306 Z M13.6762989,24.8233833 C13.6762989,21.7498619 16.1944945,19.2580928 19.3014706,19.2580928 C22.4075884,19.2580928 24.9257839,21.7498619 24.9257839,24.8233833 L24.9257839,30.3895232 L13.6762989,30.3895232 L13.6762989,24.8233833 Z" id="Shape" fill="url(#linearGradient-1)" fill-rule="nonzero"></path>
                    <polygon id="Path" fill="#373634" points="9.92647059 105.6 20.9558824 105.6 20.9558824 108.9 9.92647059 108.9"></polygon>
                    <polygon id="Path" fill="#373634" points="9.92647059 113.3 20.9558824 113.3 20.9558824 116.6 9.92647059 116.6"></polygon>
                    <path d="M26.0213084,98.6792012 L26.0570918,90.9615822 C26.0613517,89.9379375 25.2323709,89.104265 24.2048776,89.1000246 C23.7081706,89.0974803 23.2310593,89.2925411 22.880042,89.6419541 L14.119086,98.3628637 L5.6248011,98.3628637 C2.51931791,98.3654078 0.00340793772,100.870666 0,103.961106 L0,118.701758 C0.00340793772,121.792198 2.51931791,124.297456 5.6248011,124.3 L24.1546107,124.3 C27.2600939,124.297456 29.7760038,121.792198 29.7794118,118.701758 L29.7794118,103.961106 C29.7760038,101.586454 28.2705473,99.4704691 26.0213084,98.6792012 Z M26.0570918,118.701758 C26.0553878,119.746605 25.2051074,120.593847 24.1546107,120.594695 L5.6248011,120.594695 C4.57430436,120.593847 3.72317185,119.746605 3.72231992,118.701758 L3.72231992,103.961106 C3.72317185,102.916259 4.57430436,102.069017 5.6248011,102.068169 L14.8892799,102.068169 C15.3834309,102.068169 15.8562821,101.873108 16.2055958,101.525391 L22.3134721,95.4445858 L22.2930245,100.21594 C22.2930245,101.238737 23.1262654,102.068169 24.1546107,102.068169 C25.2042555,102.069017 26.0553878,102.916259 26.0562399,103.961954 L26.0562399,118.701758 L26.0570918,118.701758 Z" id="Shape" fill="#373634" fill-rule="nonzero"></path>
                </g>
                <rect id="Rectangle" stroke="#373634" stroke-width="5" fill-rule="nonzero" x="2.5" y="2.5" width="281" height="220"></rect>
            </g>
        </g>
    </g>
</svg>