<?xml version="1.0" encoding="UTF-8"?>
<svg width="286px" height="225px" viewBox="0 0 286 225" version="1.1" xmlns="http://www.w3.org/2000/svg" xmlns:xlink="http://www.w3.org/1999/xlink">
    <!-- Generator: Sketch 52.4 (67378) - http://www.bohemiancoding.com/sketch -->
    <title>ico_7</title>
    <desc>Created with Sketch.</desc>
    <defs>
        <linearGradient x1="100%" y1="50%" x2="5.32155094%" y2="50%" id="linearGradient-1">
            <stop stop-color="#FFEB3F" offset="0%"></stop>
            <stop stop-color="#F18C35" offset="100%"></stop>
        </linearGradient>
    </defs>
    <g id="🎉Design" stroke="none" stroke-width="1" fill="none" fill-rule="evenodd">
        <g id="ThaMadAd_homepage" transform="translate(-373.000000, -3415.000000)">
            <g id="Group-3-Copy-6" transform="translate(373.000000, 3415.000000)">
                <g id="ico_7">
                    <g id="Group" transform="translate(45.000000, 45.000000)">
                        <path d="M63.7380308,61.446303 C54.237621,64.2378213 47.706173,72.9585723 47.6923077,82.8728732 L47.6923077,102.975566 C47.6923077,104.209423 48.6906088,105.209945 49.9223837,105.209945 L90.077169,105.209945 C91.3093912,105.209945 92.3076923,104.209423 92.3076923,102.975566 L92.3076923,82.8728732 C92.2929325,72.9585723 85.7614846,64.2378213 76.2624164,61.446303 C83.0331526,58.4783276 86.7982508,51.1638605 85.2846974,43.9197074 C83.7706967,36.6742107 77.3913198,31.4861878 69.9997764,31.4861878 C62.6082329,31.4861878 56.2297505,36.6742107 54.7153027,43.9197074 C53.201302,51.1638605 56.9668474,58.4783276 63.7380308,61.446303 Z M87.8466459,82.8728732 L87.8466459,100.741635 L52.1538015,100.741635 L52.1538015,82.8728732 C52.1538015,73.0024627 60.1433416,65.0018722 69.9997764,65.0018722 C79.8548693,65.0018722 87.8466459,73.0024627 87.8466459,82.8728732 Z M69.9997764,35.9634551 C76.159545,35.9634551 81.1537343,40.9638242 81.1537343,47.1322149 C81.1537343,53.3006056 76.159545,58.3005268 69.9997764,58.3005268 C63.8391132,58.3005268 58.8458185,53.3006056 58.8458185,47.1322149 C58.8543165,40.9665113 63.8431387,35.9710688 69.9997764,35.9634551 Z" id="Shape" fill="url(#linearGradient-1)" fill-rule="nonzero"></path>
                        <path d="M22.0156555,34.4476226 L21.9351866,34.6363071 L22.8693449,35.0321393 C23.5593991,35.4428322 24.3025,35.7567061 25.0793168,35.9647543 L26.0669713,36.3813015 L26.1478897,36.1881136 C26.5718122,36.2610657 26.9993313,36.3033958 27.4286485,36.3146538 C29.0245396,36.3065481 30.5903111,35.8697367 31.9600802,35.045649 L39.90582,43.0055249 L43.0769231,39.8294101 L35.1302843,31.8699846 C35.9520558,30.4983065 36.3894649,28.9311891 36.3971071,27.3307478 C36.3867676,26.9006911 36.3436111,26.4719854 36.2707845,26.049134 L36.4636402,25.9667252 L36.0460111,24.9769194 C35.8401187,24.1992148 35.5267845,23.4543837 35.1163483,22.7617898 L34.7220958,21.8278239 L34.5337357,21.9088817 C34.2990723,21.5814982 34.0441792,21.2707767 33.7704052,20.9785182 C30.2216827,17.5817462 24.6351647,17.5817462 21.0873412,20.9785182 C17.5862709,24.4865197 17.5862709,30.1740753 21.0873412,33.6820767 C21.3795467,33.9576732 21.6897341,34.2130053 22.0156555,34.4476226 Z M24.2584444,24.1546331 C25.3832106,22.9869505 27.0510292,22.5177158 28.6185989,22.9297597 C30.1861685,23.3409028 31.4107341,24.5662265 31.8225189,26.1373968 C32.2325056,27.7090175 31.7640778,29.3770069 30.5988525,30.5064123 C28.8240418,32.2045732 26.0310075,32.2045732 24.2584444,30.5064123 C22.5070101,28.7515109 22.5070101,25.9090841 24.2584444,24.1546331 Z" id="Shape" fill="#373634" fill-rule="nonzero"></path>
                        <path d="M117.884594,105.263501 L117.968279,105.06603 L116.720164,104.540633 C116.281601,104.309208 115.8229,104.114864 115.350774,103.96207 L113.85608,103.334363 L113.744202,103.598849 C111.764851,103.330343 109.752832,103.708307 108.007083,104.678237 L100.079835,96.7624309 L96.9230769,99.9134738 L104.833767,107.810962 C104.015266,109.171365 103.579835,110.727006 103.572228,112.31392 C103.584758,112.741028 103.625034,113.16635 103.697979,113.58631 L103.505101,113.667175 L103.921288,114.648274 C104.128039,115.420733 104.438613,116.158791 104.846745,116.845024 L105.240109,117.773404 L105.428065,117.693433 C105.661219,118.017785 105.914511,118.325161 106.189285,118.616006 C108.430878,120.932936 111.750083,121.860869 114.871488,121.047308 C117.992892,120.230172 120.431839,117.796636 121.24676,114.681335 C122.064814,111.564693 121.133539,108.250133 118.813631,106.011834 C118.522747,105.740647 118.212621,105.490011 117.884594,105.263501 Z M115.652398,115.465409 C113.886959,117.149272 111.106112,117.149272 109.340225,115.465409 C107.596266,113.724361 107.596266,110.902585 109.33933,109.16243 C111.083736,107.421382 113.909782,107.421382 115.652398,109.16243 C117.397252,110.902585 117.397252,113.724361 115.652398,115.465409 Z" id="Shape" fill="#373634" fill-rule="nonzero"></path>
                        <path d="M131.011628,60.8269456 C130.579605,60.837841 130.148484,60.8827846 129.722324,60.9576905 L129.601014,60.6685083 L127.63752,61.5060925 C127.552287,61.5419566 127.466153,61.5755508 127.382725,61.6150466 L125.446288,62.4367417 L125.568048,62.724108 C123.978402,63.9457553 122.84017,65.6694991 122.334189,67.6193226 L110.769231,67.6193226 L110.769231,72.1481792 L122.334189,72.1481792 C122.84017,74.1016346 123.981108,75.8281023 125.577518,77.0524734 L125.454856,77.3402936 L127.393097,78.1615347 C127.474722,78.2001227 127.560856,78.2341707 127.646539,78.2709428 L129.601014,79.0994475 L129.722324,78.8089034 C133.052238,79.2991966 136.373584,77.8746224 138.328962,75.117631 C140.283437,72.3597317 140.544094,68.7347397 139.001799,65.7235222 C137.460406,62.7123047 134.377169,60.8233138 131.011628,60.8269456 Z M131.011628,74.4116996 C128.52727,74.4116996 126.513268,72.3847003 126.513268,69.8837509 C126.513268,67.3832555 128.52727,65.3548943 131.011628,65.3548943 C133.495986,65.3548943 135.509538,67.3832555 135.509538,69.8837509 C135.509538,72.3847003 133.495986,74.4116996 131.011628,74.4116996 Z" id="Shape" fill="#373634" fill-rule="nonzero"></path>
                        <path d="M103.534981,25.9667252 L103.728735,26.049134 C103.655459,26.4719854 103.615,26.9006911 103.602413,27.3307478 C103.610055,28.9311891 104.047462,30.4983065 104.869679,31.8699846 L96.9230769,39.8294101 L100.094166,43.0055249 L108.039869,35.045649 C109.408283,35.8697367 110.974497,36.3065481 112.57128,36.3146538 C113.001045,36.3033958 113.428562,36.2610657 113.851584,36.1881136 L113.932951,36.3813015 L114.92195,35.9647543 C115.696515,35.7567061 116.440062,35.4428322 117.130113,35.0321393 L118.063818,34.6363071 L117.984248,34.4476226 C118.309719,34.2130053 118.620804,33.9576732 118.913008,33.6820767 C122.413613,30.1740753 122.413613,24.4865197 118.913008,20.9785182 C115.364302,17.5817462 109.777809,17.5817462 106.23135,20.9785182 C105.95533,21.2707767 105.700888,21.5814982 105.466675,21.9088817 L105.277866,21.8278239 L104.882716,22.7635912 C104.472731,23.4552844 104.160747,24.1992148 103.953058,24.9769194 L103.534981,25.9667252 Z M109.401091,24.1546331 C110.525852,22.9869505 112.193213,22.5177158 113.761675,22.9297597 C115.328788,23.3409028 116.554696,24.5662265 116.96513,26.1373968 C117.376014,27.7090175 116.90669,29.3770069 115.741919,30.5064123 C113.967566,32.2045732 111.175444,32.2045732 109.401091,30.5064123 C107.650563,28.7515109 107.650563,25.9090841 109.401091,24.1546331 Z" id="Shape" fill="#373634" fill-rule="nonzero"></path>
                        <polygon id="Path" fill="#373634" points="88.4615385 19.2502656 90.1715714 15.359116 93.8461538 16.8432336 92.1352371 20.7348066"></polygon>
                        <polygon id="Path" fill="#373634" points="80.7692308 16.1779907 82.4808323 12.2872928 86.1538462 13.7731322 84.442686 17.6629834"></polygon>
                        <polygon id="Path" fill="#373634" points="96.1538462 22.3233885 97.8643002 18.4309392 101.538462 19.9150282 99.8284495 23.8066298"></polygon>
                        <polygon id="Path" fill="#373634" points="122.307692 84.3021654 123.795999 80.6353591 127.692308 82.3455657 126.205274 86.0110497"></polygon>
                        <polygon id="Path" fill="#373634" points="115.384615 99.6628838 116.87238 95.9944751 120.769231 97.7035199 119.280618 101.370166"></polygon>
                        <polygon id="Path" fill="#373634" points="118.461538 91.9805616 119.949727 88.3149171 123.846154 90.0236408 122.358813 93.6906077"></polygon>
                        <polygon id="Path" fill="#373634" points="45.3846154 122.157263 47.0941855 118.265193 50.7692308 119.749238 49.0592186 123.640884"></polygon>
                        <polygon id="Path" fill="#373634" points="53.0769231 125.229247 54.7875175 121.337017 58.4615385 122.822171 56.75227 126.712707"></polygon>
                        <polygon id="Path" fill="#373634" points="38.4615385 119.083879 40.1728595 115.19337 43.8461538 116.678976 42.1352742 120.569061"></polygon>
                        <path d="M36.4938098,113.667175 L36.3018339,113.58631 C36.3743283,113.16635 36.4172879,112.741028 36.4275802,112.31392 C36.4199728,110.727006 35.9845593,109.171365 35.1665366,107.810962 L43.0769231,99.9134738 L39.9202865,96.7624309 L31.9924477,104.678237 C30.2472133,103.708307 28.2357189,103.330343 26.2564441,103.598849 L26.1445702,103.334363 L24.6499336,103.964304 C24.1778253,104.114864 23.7186944,104.309208 23.2805959,104.540633 L22.0316346,105.06603 L22.1157638,105.263501 C21.7877493,105.490011 21.4785295,105.740647 21.1876571,106.011834 C18.8673904,108.250133 17.9348088,111.564693 18.7532789,114.681335 C19.5708541,117.796636 22.0083648,120.230172 25.1296493,121.047308 C28.2500387,121.860869 31.5704589,120.932936 33.8128613,118.616006 C34.0853863,118.325161 34.3391166,118.017785 34.5727094,117.693433 L34.7602103,117.773404 L35.1526642,116.846364 C35.561228,116.159238 35.8731328,115.420733 36.0780859,114.648274 L36.4938098,113.667175 Z M30.6557771,115.465409 C28.889063,117.149272 26.1087705,117.149272 24.3442938,115.465409 C22.600402,113.724361 22.600402,110.902585 24.3425038,109.16243 C26.0863956,107.421382 28.9136753,107.421382 30.6557771,109.16243 C32.3996689,110.902585 32.3996689,113.724361 30.6557771,115.465409 Z" id="Shape" fill="#373634" fill-rule="nonzero"></path>
                        <polygon id="Path" fill="#373634" points="15.3846154 48.9748763 16.8721461 45.3093923 20.7692308 47.019158 19.2812762 50.6850829"></polygon>
                        <polygon id="Path" fill="#373634" points="12.3076923 56.6557363 13.7955299 52.9889503 17.6923077 54.6974144 16.2036224 58.3646409"></polygon>
                        <polygon id="Path" fill="#373634" points="18.4615385 42.064176 19.9484555 38.3977901 23.8461538 40.106654 22.3575409 43.7734807"></polygon>
                        <polygon id="Path" fill="#373634" points="12.3076923 82.3438231 16.2031984 80.6353591 17.6923077 84.3021451 13.7959537 86.0110497"></polygon>
                        <polygon id="Path" fill="#373634" points="18.4615385 97.7034791 22.3575409 95.9944751 23.8461538 99.6607209 19.9484555 101.370166"></polygon>
                        <polygon id="Path" fill="#373634" points="15.3846154 90.0239415 19.2815383 88.3149171 20.7692308 91.9815833 16.8714597 93.6906077"></polygon>
                        <path d="M12.3665345,78.2618633 C12.4526386,78.2255453 12.5369394,78.1910432 12.6207896,78.1524553 L14.5574559,77.3307601 L14.4348365,77.0438478 C16.0248324,75.8212926 17.1640213,74.0975487 17.6684742,72.1481792 L29.2307692,72.1481792 L29.2307692,67.6193226 L17.6684742,67.6193226 C17.1617673,65.6658673 16.0212259,63.9384917 14.4258203,62.7150285 L14.5475383,62.4276622 L12.6122242,61.6059672 C12.5283742,61.5669252 12.4427208,61.5333311 12.35842,61.4974671 L10.4032705,60.6685083 L10.2815527,60.9576905 C9.85644174,60.8827846 9.42501958,60.837841 8.9940482,60.8269456 C4.0266071,60.8269456 0,64.8827601 0,69.8837509 C0,74.8856496 4.0266071,78.9405563 8.9940482,78.9405563 C9.42501958,78.9287528 9.85644174,78.8838093 10.2815527,78.8089034 L10.4032705,79.0994475 L12.3665345,78.2618633 Z M4.49770027,69.8837509 C4.49770027,67.3832555 6.51055298,65.3548943 8.9940482,65.3548943 C11.4775433,65.3548943 13.4912977,67.3832555 13.4912977,69.8837509 C13.4912977,72.3847003 11.4775433,74.4116996 8.9940482,74.4116996 C6.51055298,74.4116996 4.49770027,72.3847003 4.49770027,69.8837509 Z" id="Shape" fill="#373634" fill-rule="nonzero"></path>
                        <polygon id="Path" fill="#373634" points="96.1538462 116.67794 99.826439 115.19337 101.538462 119.083221 97.8654272 120.569061"></polygon>
                        <polygon id="Path" fill="#373634" points="80.7692308 122.822694 84.4424054 121.337017 86.1538462 125.226183 82.48023 126.712707"></polygon>
                        <polygon id="Path" fill="#373634" points="88.4615385 119.750186 92.1336898 118.265193 93.8461538 122.156738 90.1731195 123.640884"></polygon>
                        <path d="M78.391381,126.517845 C78.3559139,126.432576 78.3218109,126.348201 78.2822514,126.266503 L77.4601421,124.348627 L77.1723129,124.469164 C75.9477883,122.894595 74.2212677,121.767798 72.2692127,121.267793 L72.2692127,109.81768 L67.7321514,109.81768 L67.7321514,121.267793 C65.776004,121.769137 64.0463005,122.898613 62.8204118,124.478093 L62.5321279,124.357109 L61.7086544,126.275432 C61.6718232,126.357129 61.6372656,126.441059 61.600889,126.526774 L60.7692308,128.461614 L61.0611524,128.581258 C60.4477534,132.077275 62.0051231,135.595614 65.0257383,137.541169 C68.0463536,139.486277 71.9545559,139.486277 74.9751711,137.541169 C77.9957864,135.595614 79.5540655,132.077275 78.9406664,128.581258 L79.2307692,128.461614 L78.391381,126.517845 Z M70.0006821,134.311226 C67.4961587,134.311226 65.4658942,132.317456 65.4658942,129.858057 C65.4658942,127.398211 67.4961587,125.404888 70.0006821,125.404888 C72.5052054,125.404888 74.5368341,127.398211 74.5368341,129.858057 C74.5368341,132.317456 72.5052054,134.311226 70.0006821,134.311226 Z" id="Shape" fill="#373634" fill-rule="nonzero"></path>
                        <polygon id="Path" fill="#373634" points="115.384615 40.1068552 119.280311 38.3977901 120.769231 42.0657374 116.872263 43.7734807"></polygon>
                        <polygon id="Path" fill="#373634" points="122.307692 54.6981149 126.205084 52.9889503 127.692308 56.6554764 123.79534 58.3646409"></polygon>
                        <polygon id="Path" fill="#373634" points="118.461538 47.0182561 122.360158 45.3093923 123.846154 48.9757782 119.948807 50.6850829"></polygon>
                        <path d="M61.6095284,12.3461586 C61.6459049,12.4316739 61.6804627,12.5176393 61.7182033,12.5991038 L62.5412221,14.5330997 L62.8299607,14.4115781 C64.0540305,15.9985619 65.7805511,17.1345652 67.7321514,17.6391055 L67.7321514,29.1823204 L72.2692127,29.1823204 L72.2692127,17.6391055 C74.2258148,17.1341151 75.9555183,15.9958615 77.1804977,14.4025765 L77.4692362,14.5245483 L78.292255,12.5901022 C78.330905,12.5081876 78.3640986,12.4231223 78.4013846,12.3376071 L79.2307692,10.386508 L78.9406664,10.2658864 C79.0161478,9.84056036 79.0588901,9.41073344 79.0720767,8.97910632 C79.0720767,4.02011915 75.0106382,0 70.0006821,0 C64.9916353,0 60.9288328,4.02011915 60.9288328,8.97910632 C60.9420194,9.41073344 60.9856712,9.84056036 61.0611524,10.2658864 L60.7692308,10.386508 L61.6095284,12.3461586 Z M70.0006821,4.49000321 C72.5052054,4.49000321 74.5368341,6.49961268 74.5368341,8.97910632 C74.5368341,11.4581497 72.5052054,13.4695596 70.0006821,13.4695596 C67.4961587,13.4695596 65.4658942,11.4581497 65.4658942,8.97910632 C65.4658942,6.49961268 67.4961587,4.49000321 70.0006821,4.49000321 Z" id="Shape" fill="#373634" fill-rule="nonzero"></path>
                        <polygon id="Path" fill="#373634" points="38.4615385 19.9167785 42.1344529 18.4309392 43.8461538 22.3220604 40.173681 23.8066298"></polygon>
                        <polygon id="Path" fill="#373634" points="53.0769231 13.7714389 56.7490948 12.2872928 58.4615385 16.1771441 54.7884836 17.6629834"></polygon>
                        <polygon id="Path" fill="#373634" points="46.1538462 16.843379 49.8265998 15.359116 51.5384615 19.2488502 47.8657079 20.7348066"></polygon>
                    </g>
                    <rect id="Rectangle" stroke="#373634" stroke-width="5" fill-rule="nonzero" x="2.5" y="2.5" width="281" height="220"></rect>
                </g>
            </g>
        </g>
    </g>
</svg>