<?xml version="1.0" encoding="UTF-8"?>
<svg width="286px" height="225px" viewBox="0 0 286 225" version="1.1" xmlns="http://www.w3.org/2000/svg" xmlns:xlink="http://www.w3.org/1999/xlink">
    <!-- Generator: Sketch 52.4 (67378) - http://www.bohemiancoding.com/sketch -->
    <title>ico_6</title>
    <desc>Created with Sketch.</desc>
    <defs>
        <linearGradient x1="100%" y1="50%" x2="5.32155094%" y2="50%" id="linearGradient-1">
            <stop stop-color="#FFEB3F" offset="0%"></stop>
            <stop stop-color="#F18C35" offset="100%"></stop>
        </linearGradient>
    </defs>
    <g id="🎉Design" stroke="none" stroke-width="1" fill="none" fill-rule="evenodd">
        <g id="ThaMadAd_homepage" transform="translate(-1287.000000, -3090.000000)">
            <g id="ico_6" transform="translate(1287.000000, 3090.000000)">
                <rect id="Rectangle" stroke="#373634" stroke-width="5" fill-rule="nonzero" x="2.5" y="2.5" width="281" height="220"></rect>
                <path d="M230.766667,49 L112.233333,49 C109.895491,49 108,50.895491 108,53.2333325 L108,133.666649 C108,136.004491 109.895491,137.899982 112.233333,137.899982 L168.795256,137.899982 C168.044914,139.205328 166.655851,140.012514 165.15,140.016648 L149.275,140.016648 C146.352181,140.016648 143.983333,142.385495 143.983333,145.308314 C143.983333,148.231132 146.352181,150.599979 149.275,150.599979 L192.666667,150.599979 C194.172518,150.604113 195.56158,151.411299 196.311922,152.716645 L132.600049,152.716645 C131.034253,152.701142 129.59248,153.565172 128.867977,154.954234 L120.338265,169.872184 C119.680941,171.184765 119.751221,172.743326 120.522233,173.991828 C121.294279,175.24033 122.657503,175.999974 124.125114,175.999974 L218.874886,175.999974 C220.34353,176.005141 221.707788,175.243431 222.473633,173.990795 C223.262215,172.707152 223.312858,171.101049 222.604891,169.770898 L214.193001,155.05552 C213.479866,153.618916 212.012256,152.712511 210.40822,152.716645 L200.832576,152.716645 C199.870361,148.989742 196.515527,146.381116 192.666667,146.366647 L149.275,146.366647 C148.690023,146.366647 148.216667,145.893291 148.216667,145.308314 C148.216667,144.723336 148.690023,144.24998 149.275,144.24998 L165.15,144.24998 C168.998861,144.235511 172.353695,141.626885 173.31591,137.899982 L230.766667,137.899982 C233.104509,137.899982 235,136.004491 235,133.666649 L235,53.2333325 C235,50.895491 233.104509,49 230.766667,49 Z M210.46403,157.053331 L218.886255,171.766641 L124.069303,171.869994 L132.59178,156.949978 L210.46403,157.053331 Z M112.233333,133.666649 L112.233333,53.2333325 L230.766667,53.2333325 L230.766667,133.666649 L112.233333,133.666649 Z" id="Shape" fill="#333333" fill-rule="nonzero"></path>
                <path d="M131,59 C131,60.1044922 130.104492,61 129,61 C127.895508,61 127,60.1044922 127,59 C127,57.8955078 127.895508,57 129,57 C130.104492,57 131,57.8955078 131,59 Z" id="Path" fill="#333333"></path>
                <path d="M118,60 C116.895508,60 116,60.9328206 116,62.0833333 L116,82.9166667 C116,84.0671794 116.895508,85 118,85 C119.104492,85 120,84.0671794 120,82.9166667 L120,62.0833333 C120,60.9328206 119.104492,60 118,60 Z" id="Path" fill="#333333"></path>
                <path d="M126,128 C126,129.104492 125.104492,130 124,130 C122.895508,130 122,129.104492 122,128 C122,126.895508 122.895508,126 124,126 C125.104492,126 126,126.895508 126,128 Z" id="Path" fill="#333333"></path>
                <path d="M169,128 C169,129.104492 168.104492,130 167,130 C165.895508,130 165,129.104492 165,128 C165,126.895508 165.895508,126 167,126 C168.104492,126 169,126.895508 169,128 Z" id="Path" fill="#333333"></path>
                <path d="M158.916667,126 L138.083333,126 C136.932821,126 136,126.895508 136,128 C136,129.104492 136.932821,130 138.083333,130 L158.916667,130 C160.067179,130 161,129.104492 161,128 C161,126.895508 160.067179,126 158.916667,126 Z" id="Path" fill="#333333"></path>
                <path d="M138.083333,61 L158.916667,61 C160.067179,61 161,60.1044922 161,59 C161,57.8955078 160.067179,57 158.916667,57 L138.083333,57 C136.932821,57 136,57.8955078 136,59 C136,60.1044922 136.932821,61 138.083333,61 Z" id="Path" fill="#333333"></path>
                <path d="M120,91 C120,92.1044922 119.104492,93 118,93 C116.895508,93 116,92.1044922 116,91 C116,89.8955078 116.895508,89 118,89 C119.104492,89 120,89.8955078 120,91 Z" id="Path" fill="#333333"></path>
                <path d="M173,59 C173,60.1044922 172.104492,61 171,61 C169.895508,61 169,60.1044922 169,59 C169,57.8955078 169.895508,57 171,57 C172.104492,57 173,57.8955078 173,59 Z" id="Path" fill="#333333"></path>
                <path d="M118,102 C116.895508,102 116,102.932821 116,104.083333 L116,124.916667 C116,126.067179 116.895508,127 118,127 C119.104492,127 120,126.067179 120,124.916667 L120,104.083333 C120,102.932821 119.104492,102 118,102 Z" id="Path" fill="#333333"></path>
                <path d="M200.916667,57 L180.083333,57 C178.932821,57 178,57.8955078 178,59 C178,60.1044922 178.932821,61 180.083333,61 L200.916667,61 C202.067179,61 203,60.1044922 203,59 C203,57.8955078 202.067179,57 200.916667,57 Z" id="Path" fill="#333333"></path>
                <path d="M225,91 C225,92.1044922 224.104492,93 223,93 C221.895508,93 221,92.1044922 221,91 C221,89.8955078 221.895508,89 223,89 C224.104492,89 225,89.8955078 225,91 Z" id="Path" fill="#333333"></path>
                <path d="M215,59 C215,60.1044922 214.104492,61 213,61 C211.895508,61 211,60.1044922 211,59 C211,57.8955078 211.895508,57 213,57 C214.104492,57 215,57.8955078 215,59 Z" id="Path" fill="#333333"></path>
                <path d="M223,97 C221.895508,97 221,98.0074462 221,99.25 L221,112.75 C221,113.992554 221.895508,115 223,115 C224.104492,115 225,113.992554 225,112.75 L225,99.25 C225,98.0074462 224.104492,97 223,97 Z" id="Path" fill="#333333"></path>
                <path d="M224.666573,57.0001309 L222.333287,57.0001309 C221.044738,57.0001309 220,57.9770431 220,59.1819372 C220,60.3868312 221.044738,61.3637434 222.333287,61.3637434 L222.333287,78.8181937 C222.333287,80.0230878 223.378025,81 224.666573,81 C225.955122,81 226.99986,80.0230878 226.99986,78.8181937 L226.99986,59.1819372 C227.006696,58.6013296 226.762886,58.043094 226.323116,57.6329398 C225.884485,57.2217206 225.287492,56.9937387 224.666573,57.0001309 Z" id="Path" fill="#333333"></path>
                <path d="M200.916667,126 L180.083333,126 C178.932821,126 178,126.895508 178,128 C178,129.104492 178.932821,130 180.083333,130 L200.916667,130 C202.067179,130 203,129.104492 203,128 C203,126.895508 202.067179,126 200.916667,126 Z" id="Path" fill="#333333"></path>
                <polygon id="Path" fill="#333333" points="133 159 137 159 137 163 133 163"></polygon>
                <polygon id="Path" fill="#333333" points="140 159 144 159 144 163 140 163"></polygon>
                <polygon id="Path" fill="#333333" points="147 159 151 159 151 163 147 163"></polygon>
                <polygon id="Path" fill="#333333" points="153 159 157 159 157 163 153 163"></polygon>
                <polygon id="Path" fill="#333333" points="159 159 163 159 163 163 159 163"></polygon>
                <polygon id="Path" fill="#333333" points="165 159 169 159 169 163 165 163"></polygon>
                <polygon id="Path" fill="#333333" points="172 159 176 159 176 163 172 163"></polygon>
                <polygon id="Path" fill="#333333" points="178 159 182 159 182 163 178 163"></polygon>
                <polygon id="Path" fill="#333333" points="185 159 189 159 189 163 185 163"></polygon>
                <polygon id="Path" fill="#333333" points="189 159 193 159 193 163 189 163"></polygon>
                <polygon id="Path" fill="#333333" points="196 159 200 159 200 163 196 163"></polygon>
                <polygon id="Path" fill="#333333" points="203 159 207 159 207 163 203 163"></polygon>
                <polygon id="Path" fill="#333333" points="133 166 137 166 137 170 133 170"></polygon>
                <polygon id="Path" fill="#333333" points="140 166 144 166 144 170 140 170"></polygon>
                <polygon id="Path" fill="#333333" points="147 166 151 166 151 170 147 170"></polygon>
                <polygon id="Path" fill="#333333" points="153 166 157 166 157 170 153 170"></polygon>
                <polygon id="Path" fill="#333333" points="186 166 190 166 190 170 186 170"></polygon>
                <polygon id="Path" fill="#333333" points="193 166 197 166 197 170 193 170"></polygon>
                <polygon id="Path" fill="#333333" points="199 166 203 166 203 170 199 170"></polygon>
                <polygon id="Path" fill="#333333" points="206 166 210 166 210 170 206 170"></polygon>
                <polygon id="Path" fill="#333333" points="159 166 184 166 184 170 159 170"></polygon>
                <polygon id="Path" fill="#333333" points="221 126 225 126 225 130 221 130"></polygon>
                <polygon id="Path" fill="#333333" points="216 126 220 126 220 130 216 130"></polygon>
                <polygon id="Path" fill="#333333" points="221 119 225 119 225 123 221 123"></polygon>
                <path d="M147.853705,95.0742922 L144.100096,88.9003336 C143.490822,88.0221046 142.276571,87.7976589 141.388011,88.4004317 C141.190362,88.5347592 141.018493,88.7047938 140.882717,88.9003336 L137.128248,95.0742922 L134.083597,88 L130,88 L135.144026,99.8743705 C135.552214,100.817213 136.656469,101.253352 137.608621,100.848669 C137.971264,100.695638 138.274612,100.432934 138.477417,100.099666 L142.5,93.4674646 L146.523443,100.099666 C146.862024,100.65823 147.473017,101 148.132133,101 L148.257597,101 C148.95968,100.954941 149.576688,100.524753 149.856833,99.885423 L155,88 L150.917262,88 L147.853705,95.0742922 Z" id="Path" fill="url(#linearGradient-1)"></path>
                <path d="M142.568816,113.441763 L139.716073,108.692564 C139.253025,108.017004 138.330194,107.844353 137.654888,108.308024 C137.504675,108.411353 137.374055,108.542149 137.270865,108.692564 L134.417469,113.441763 L132.103534,108 L129,108 L132.90946,117.134131 C133.219682,117.859395 134.058917,118.194886 134.782552,117.883592 C135.05816,117.765875 135.288705,117.563796 135.442837,117.307436 L138.5,112.205742 L141.557817,117.307436 C141.815138,117.7371 142.279493,118 142.780421,118 L142.875773,118 C143.409356,117.965339 143.878283,117.634426 144.091193,117.142633 L148,108 L144.897119,108 L142.568816,113.441763 Z" id="Path-Copy-13" fill="#333333"></path>
                <path d="M142.568816,75.4417632 L139.716073,70.6925643 C139.253025,70.0170035 138.330194,69.844353 137.654888,70.3080244 C137.504675,70.4113532 137.374055,70.5421491 137.270865,70.6925643 L134.417469,75.4417632 L132.103534,70 L129,70 L132.90946,79.1341312 C133.219682,79.8593945 134.058917,80.194886 134.782552,79.8835917 C135.05816,79.7658754 135.288705,79.5637957 135.442837,79.3074357 L138.5,74.205742 L141.557817,79.3074357 C141.815138,79.7371003 142.279493,80 142.780421,80 L142.875773,80 C143.409356,79.9653391 143.878283,79.6344256 144.091193,79.1426331 L148,70 L144.897119,70 L142.568816,75.4417632 Z" id="Path-Copy-16" fill="#333333"></path>
                <path d="M208.568816,113.441763 L205.716073,108.692564 C205.253025,108.017004 204.330194,107.844353 203.654888,108.308024 C203.504675,108.411353 203.374055,108.542149 203.270865,108.692564 L200.417469,113.441763 L198.103534,108 L195,108 L198.90946,117.134131 C199.219682,117.859395 200.058917,118.194886 200.782552,117.883592 C201.05816,117.765875 201.288705,117.563796 201.442837,117.307436 L204.5,112.205742 L207.557817,117.307436 C207.815138,117.7371 208.279493,118 208.780421,118 L208.875773,118 C209.409356,117.965339 209.878283,117.634426 210.091193,117.142633 L214,108 L210.897119,108 L208.568816,113.441763 Z" id="Path-Copy-14" fill="#333333"></path>
                <path d="M208.568816,75.4417632 L205.716073,70.6925643 C205.253025,70.0170035 204.330194,69.844353 203.654888,70.3080244 C203.504675,70.4113532 203.374055,70.5421491 203.270865,70.6925643 L200.417469,75.4417632 L198.103534,70 L195,70 L198.90946,79.1341312 C199.219682,79.8593945 200.058917,80.194886 200.782552,79.8835917 C201.05816,79.7658754 201.288705,79.5637957 201.442837,79.3074357 L204.5,74.205742 L207.557817,79.3074357 C207.815138,79.7371003 208.279493,80 208.780421,80 L208.875773,80 C209.409356,79.9653391 209.878283,79.6344256 210.091193,79.1426331 L214,70 L210.897119,70 L208.568816,75.4417632 Z" id="Path-Copy-18" fill="#333333"></path>
                <path d="M177.853705,95.0742922 L174.099237,88.9003336 C173.490822,88.0221046 172.276571,87.7976589 171.38801,88.4004317 C171.189502,88.5347592 171.017634,88.7047938 170.881858,88.9003336 L167.127389,95.0742922 L164.082738,88 L160,88 L165.143166,99.8743705 C165.552214,100.817213 166.65561,101.253352 167.608621,100.848669 C167.970404,100.695638 168.274612,100.432934 168.477416,100.099666 L172.5,93.4674646 L176.522584,100.099666 C176.862024,100.65823 177.472157,101 178.131273,101 L178.256737,101 C178.95968,100.954941 179.576688,100.524753 179.856834,99.885423 L185,88 L180.917263,88 L177.853705,95.0742922 Z" id="Path" fill="url(#linearGradient-1)"></path>
                <path d="M165.568816,113.441763 L162.71542,108.692564 C162.253025,108.017004 161.330194,107.844353 160.654888,108.308024 C160.504022,108.411353 160.373402,108.542149 160.270212,108.692564 L157.416816,113.441763 L155.102881,108 L152,108 L155.908807,117.134131 C156.219683,117.859395 157.058263,118.194886 157.782552,117.883592 C158.057507,117.765875 158.288705,117.563796 158.442836,117.307436 L161.5,112.205742 L164.557164,117.307436 C164.815138,117.7371 165.27884,118 165.779768,118 L165.87512,118 C166.409357,117.965339 166.878283,117.634426 167.091193,117.142633 L171,108 L167.89712,108 L165.568816,113.441763 Z" id="Path-Copy-15" fill="#333333"></path>
                <path d="M165.568816,75.4417632 L162.71542,70.6925643 C162.253025,70.0170035 161.330194,69.844353 160.654888,70.3080244 C160.504022,70.4113532 160.373402,70.5421491 160.270212,70.6925643 L157.416816,75.4417632 L155.102881,70 L152,70 L155.908807,79.1341312 C156.219683,79.8593945 157.058263,80.194886 157.782552,79.8835917 C158.057507,79.7658754 158.288705,79.5637957 158.442836,79.3074357 L161.5,74.205742 L164.557164,79.3074357 C164.815138,79.7371003 165.27884,80 165.779768,80 L165.87512,80 C166.409357,79.9653391 166.878283,79.6344256 167.091193,79.1426331 L171,70 L167.89712,70 L165.568816,75.4417632 Z" id="Path-Copy-19" fill="#333333"></path>
                <path d="M207.853705,95.0742922 L204.10869,88.9003336 C203.500275,88.0221046 202.286024,87.7976589 201.397463,88.4004317 C201.198955,88.5347592 201.027946,88.7047938 200.89131,88.9003336 L197.146295,95.0742922 L194.082738,88 L190,88 L195.144026,99.8743705 C195.552214,100.817213 196.656469,101.253352 197.608621,100.848669 C197.970404,100.695638 198.274612,100.432934 198.477416,100.099666 L202.5,93.4674646 L206.523443,100.099666 C206.862024,100.65823 207.473017,101 208.132133,101 L208.257596,101 C208.95968,100.954941 209.576688,100.524753 209.856833,99.885423 L215,88 L210.917262,88 L207.853705,95.0742922 Z" id="Path" fill="url(#linearGradient-1)"></path>
                <path d="M187.568816,113.441763 L184.722604,108.692564 C184.260209,108.017004 183.337378,107.844353 182.662072,108.308024 C182.511206,108.411353 182.381239,108.542149 182.277396,108.692564 L179.431184,113.441763 L177.102881,108 L174,108 L177.90946,117.134131 C178.219682,117.859395 179.058916,118.194886 179.782552,117.883592 C180.057507,117.765875 180.288705,117.563796 180.442836,117.307436 L183.5,112.205742 L186.557817,117.307436 C186.815138,117.7371 187.279493,118 187.780421,118 L187.875773,118 C188.409357,117.965339 188.878283,117.634426 189.091193,117.142633 L193,108 L189.897119,108 L187.568816,113.441763 Z" id="Path-Copy-17" fill="#333333"></path>
                <path d="M187.568816,75.4417632 L184.722604,70.6925643 C184.260209,70.0170035 183.337378,69.844353 182.662072,70.3080244 C182.511206,70.4113532 182.381239,70.5421491 182.277396,70.6925643 L179.431184,75.4417632 L177.102881,70 L174,70 L177.90946,79.1341312 C178.219682,79.8593945 179.058916,80.194886 179.782552,79.8835917 C180.057507,79.7658754 180.288705,79.5637957 180.442836,79.3074357 L183.5,74.205742 L186.557817,79.3074357 C186.815138,79.7371003 187.279493,80 187.780421,80 L187.875773,80 C188.409357,79.9653391 188.878283,79.6344256 189.091193,79.1426331 L193,70 L189.897119,70 L187.568816,75.4417632 Z" id="Path-Copy-20" fill="#333333"></path>
            </g>
        </g>
    </g>
</svg>