<?xml version="1.0" encoding="UTF-8"?>
<svg width="286px" height="225px" viewBox="0 0 286 225" version="1.1" xmlns="http://www.w3.org/2000/svg" xmlns:xlink="http://www.w3.org/1999/xlink">
    <!-- Generator: Sketch 52.4 (67378) - http://www.bohemiancoding.com/sketch -->
    <title>ico_4</title>
    <desc>Created with Sketch.</desc>
    <defs>
        <linearGradient x1="100%" y1="50%" x2="5.32155094%" y2="50%" id="linearGradient-1">
            <stop stop-color="#FFEB3F" offset="0%"></stop>
            <stop stop-color="#F18C35" offset="100%"></stop>
        </linearGradient>
    </defs>
    <g id="🎉Design" stroke="none" stroke-width="1" fill="none" fill-rule="evenodd">
        <g id="ThaMadAd_homepage" transform="translate(-1287.000000, -2440.000000)">
            <g id="Group-3-Copy-3" transform="translate(439.000000, 2440.000000)">
                <g id="ico_4" transform="translate(848.000000, 0.000000)">
                    <g id="Group" transform="translate(107.000000, 42.000000)">
                        <path d="M112.5,23 C110.566829,23 109,24.5668295 109,26.4999999 C109,28.4331705 110.566829,30 112.5,30 C114.433171,30 116,28.4331705 116,26.4999999 C116,24.5668295 114.433171,23 112.5,23 Z" id="Path" fill="#373634"></path>
                        <path d="M121.840986,0.689074789 C120.92222,-0.229691596 119.43259,-0.229691596 118.513824,0.689074789 L99.6893441,19.5124775 C99.2488102,19.9540888 99,20.5518791 99,21.1765972 L99,37.6465362 C99,38.9465962 100.053404,40 101.353464,40 L117.82448,40 C118.448121,40 119.045911,39.7522671 119.487522,39.3106559 L138.310925,20.4861761 C139.229692,19.5674097 139.229692,18.0788571 138.310925,17.1590137 L121.840986,0.689074789 Z M116.849704,35.2941494 L103.705851,35.2941494 L103.705851,22.1502958 L120.176867,5.67927986 L133.32072,18.8231334 L116.849704,35.2941494 Z" id="Shape" fill="#373634" fill-rule="nonzero"></path>
                        <path d="M2.30049974,79.483528 L9.19989339,79.483528 L9.19989339,79.78122 C9.20936933,83.95954 12.0678852,87.5818138 16.1003401,88.5227331 L16.1003401,109.676939 C16.1003401,110.960205 17.1300376,112 18.399787,112 L32.1996274,112 C33.4704299,112 34.5001271,110.960205 34.5001271,109.676939 L34.5001271,100.386823 L36.8185254,100.386823 C40.6151399,100.376191 43.6905449,97.2716883 43.7000205,93.4378407 L43.7000205,88.5227331 C46.637501,87.8274095 49.026441,85.6755216 50.0435042,82.8070467 L88.7666542,100.186944 C89.9279589,100.707905 91.2872017,100.179501 91.8020503,99.0068074 C91.932605,98.7101788 92.0010411,98.3890966 91.999988,98.0637619 L91.999988,42.3219976 C92.0010411,41.0397958 90.9713436,40 89.7005411,40 C89.3794187,40 89.060402,40.0680439 88.7666542,40.1998789 L50.0435042,57.5797759 C48.7863888,54.0106615 45.4456631,51.6238097 41.6943217,51.6131777 L18.1060389,51.6131777 C13.1891814,51.6174304 9.20515789,55.6415883 9.19989339,60.6056026 L9.19989339,60.9032946 L2.30049974,60.9032946 C1.02969726,60.9032946 0,61.9430901 0,63.2252922 L0,77.1604672 C0,78.4437325 1.02969726,79.483528 2.30049974,79.483528 Z M78.2001477,50.023715 L87.4000413,45.8974913 L87.4000413,94.4893313 L78.2001477,90.3631076 L78.2001477,50.023715 Z M50.6004672,62.4130181 L73.600201,52.0884218 L73.600201,88.3090328 L50.6004672,77.9738045 L50.6004672,62.4130181 Z M29.9001804,98.0637619 L29.9001804,107.354942 L20.7002868,107.354942 L20.7002868,88.7736449 L29.9001804,88.7736449 L29.9001804,98.0637619 Z M39.1000738,93.4378407 C39.099021,94.7094109 38.0787995,95.7407009 36.8185254,95.7417643 L34.5001271,95.7417643 L34.5001271,88.7736449 L39.1000738,88.7736449 L39.1000738,93.4378407 Z M13.7998404,77.1604672 L13.7998404,60.6056026 C13.802999,58.2059923 15.7286805,56.2603625 18.1060389,56.258236 L41.6943217,56.258236 C44.0716804,56.2603625 45.9973619,58.2059923 46.0005205,60.6056026 L46.0005205,79.78122 C45.9973619,82.1808303 44.0716804,84.1264601 41.6943217,84.1285866 L18.1060389,84.1285866 C15.7286805,84.1264601 13.802999,82.1808303 13.7998404,79.78122 L13.7998404,77.1604672 Z M4.59994669,65.548353 L9.19989339,65.548353 L9.19989339,74.8384696 L4.59994669,74.8384696 L4.59994669,65.548353 Z" id="Shape" fill="#373634" fill-rule="nonzero"></path>
                        <path d="M115.361739,90.6791974 C114.456077,89.7736009 112.987694,89.7736009 112.082031,90.6791974 L95.6792468,107.080795 C94.7735844,107.986391 94.7735844,109.454668 95.6792468,110.360265 L118.641446,133.320802 C119.547109,134.226399 121.01443,134.226399 121.921154,133.320802 L138.320753,116.921328 C139.226416,116.015732 139.226416,114.547455 138.320753,113.641858 L115.361739,90.6791974 Z M130.609353,112.480402 L117.520251,111.47607 L116.513724,98.3879162 L130.609353,112.480402 Z M120.280769,128.394696 L100.598277,108.717876 L111.7943,97.5237245 L113.049274,113.813847 C113.136337,114.954071 114.041999,115.861791 115.182305,115.949909 L131.476792,117.201607 L120.280769,128.394696 Z" id="Shape" fill="#373634" fill-rule="nonzero"></path>
                        <path d="M62.1127664,43.9999583 C70.9721614,44.0199505 78.1706827,36.8469775 78.1917064,27.9788806 C78.1990648,24.4855154 77.0690398,21.0847454 74.9719238,18.2921576 L89,4.25030267 L85.748682,1 L71.7206058,15.037646 C64.6177425,9.70605517 54.5421252,11.1465424 49.215766,18.2553301 C43.8894071,25.3641179 45.3284806,35.4496315 52.4302927,40.7822745 C55.2232937,42.8782936 58.621778,44.0073239 62.1127664,43.9999583 Z M62.1127664,16.4160523 C68.4535199,16.4160523 73.593819,21.5624527 73.593819,27.9094343 C73.593819,34.257468 68.4535199,39.402816 62.1127664,39.402816 C55.7709618,39.402816 50.6306624,34.257468 50.6306624,27.9094343 C50.6380208,21.5656092 55.7741151,16.4244701 62.1127664,16.4160523 Z" id="Shape" fill="#373634" fill-rule="nonzero"></path>
                        <path d="M99.3119707,81.2979823 L110.875,81.2979823 L110.875,83.6484531 C110.875,84.9474539 111.910305,86 113.188029,86 L131.688029,86 C132.964694,86 134,84.9474539 134,83.6484531 L134,71.9380716 C133.988355,67.9452848 131.504892,64.3926731 127.80087,63.0678426 C131.963264,60.0565708 132.936112,54.1846988 129.974165,49.9529906 C127.013275,45.7212819 121.237583,44.7311569 117.075189,47.7424287 C112.912795,50.7537005 111.938888,56.6255725 114.900835,60.8572807 C115.498941,61.7118018 116.233606,62.4597768 117.075189,63.0678426 C115.578336,63.610259 114.243448,64.5347345 113.198615,65.7519427 C112.393025,64.808095 111.40959,64.0364432 110.306535,63.4832645 C113.414568,61.2059772 114.118534,56.7977682 111.878548,53.6379778 C109.638561,50.4781874 105.302558,49.762499 102.193465,52.0397866 C99.0854313,54.3170742 98.3814659,58.7252832 100.621452,61.8850736 C101.057593,62.5006731 101.589008,63.039861 102.193465,63.4832645 C99.02615,65.0491689 97.0105858,68.3122767 97,71.8928703 L97,78.946435 C97,80.24436 98.0353054,81.2979823 99.3119707,81.2979823 Z M122.438029,50.7343283 C124.992418,50.7343283 127.063029,52.8394203 127.063029,55.436346 C127.063029,58.0332718 124.992418,60.1383641 122.438029,60.1383641 C119.88364,60.1383641 117.813029,58.0321957 117.813029,55.436346 C117.813029,52.8394203 119.88364,50.7343283 122.438029,50.7343283 Z M115.5,78.946435 L115.5,71.9380716 C115.504234,69.317469 117.591783,67.1951575 120.169461,67.1908526 L124.706598,67.1908526 C127.283217,67.1951575 129.371824,69.317469 129.375,71.9380716 L129.375,81.2969058 L115.5,81.2969058 L115.5,78.946435 Z M106.25,55.436346 C107.526665,55.436346 108.561971,56.4888922 108.561971,57.7868168 C108.561971,59.0858179 107.526665,60.1383641 106.25,60.1383641 C104.972276,60.1383641 103.936971,59.0858179 103.936971,57.7868168 C103.936971,56.4888922 104.972276,55.436346 106.25,55.436346 Z M101.625,71.8928703 C101.625,69.2959446 103.695611,67.1908526 106.25,67.1908526 C108.804389,67.1908526 110.875,69.2970207 110.875,71.8928703 L110.875,76.5959642 L101.625,76.5959642 L101.625,71.8928703 Z" id="Shape" fill="url(#linearGradient-1)" fill-rule="nonzero"></path>
                        <path d="M65.1429818,95 L56.0001744,95 C55.3943508,95 54.8125932,95.2438215 54.3835989,95.6784602 L40.6693878,109.573113 C39.7768707,110.477374 39.7768707,111.943484 40.6693878,112.847744 L65.8126312,138.321805 C66.7051483,139.226065 68.1522189,139.226065 69.044736,138.321805 L87.3313969,119.795601 C88.2228677,118.89134 88.2228677,117.42523 87.3313969,116.52097 L66.7595573,95.6784602 C66.3305633,95.2438215 65.7488051,95 65.1429818,95 Z M67.4292067,133.410389 L45.5180683,111.210959 L56.9460542,99.631551 L64.197102,99.631551 L82.4827167,118.157755 L67.4292067,133.410389 Z" id="Shape" fill="#373634" fill-rule="nonzero"></path>
                        <polygon id="Path" fill="#373634" points="53 113.604633 62.6046336 104 66 107.395366 56.3953667 117"></polygon>
                        <polygon id="Path" fill="#373634" points="60 121.603822 69.6049206 112 73 115.395079 63.3961787 125"></polygon>
                    </g>
                    <rect id="Rectangle" stroke="#373634" stroke-width="5" fill-rule="nonzero" x="2.5" y="2.5" width="281" height="220"></rect>
                </g>
            </g>
        </g>
    </g>
</svg>