<?xml version="1.0" encoding="utf-8"?>
<!-- Generator: Adobe Illustrator 16.0.0, SVG Export Plug-In . SVG Version: 6.00 Build 0)  -->
<!DOCTYPE svg PUBLIC "-//W3C//DTD SVG 1.1//EN" "http://www.w3.org/Graphics/SVG/1.1/DTD/svg11.dtd">
<svg version="1.1" id="Layer_1" xmlns="http://www.w3.org/2000/svg" xmlns:xlink="http://www.w3.org/1999/xlink" x="0px" y="0px"
	 width="170.079px" height="53.259px" viewBox="0 0 170.079 53.259" enable-background="new 0 0 170.079 53.259"
	 xml:space="preserve">
<g>
	<path fill="#FFFFFF" d="M133.991,26.17l3.221,7.01h-6.48L133.991,26.17z M150.723,20.974h3.516c1.043,0,2.02,0.214,2.928,0.6
		s1.711,0.925,2.4,1.616c0.686,0.684,1.23,1.485,1.617,2.386s0.594,1.871,0.594,2.909c0,1.044-0.209,2.027-0.594,2.929
		c-0.387,0.908-0.932,1.717-1.617,2.4c-0.689,0.691-1.492,1.237-2.4,1.624c-0.908,0.386-1.889,0.593-2.928,0.593h-3.516V20.974z
		 M53.32,26.17l3.219,7.01h-6.48L53.32,26.17z M70.051,20.974h3.516c1.044,0,2.019,0.212,2.93,0.6
		c0.91,0.388,1.708,0.925,2.399,1.616c0.685,0.685,1.229,1.483,1.616,2.386c0.389,0.903,0.594,1.871,0.594,2.909
		c0,1.044-0.207,2.026-0.594,2.929c-0.389,0.91-0.932,1.716-1.616,2.4c-0.691,0.691-1.489,1.235-2.399,1.624
		c-0.911,0.388-1.887,0.593-2.93,0.593h-3.516V20.974z M11.472,30.092H7.015v-4.293h4.457V30.092z M0,44.39h2.573v-3.441h8.898
		v3.441h8.387V28.083l8.345,7.561l8.301-7.603v16.35h0.043h8.344l1.906-4.165h13.004l1.947,4.165h8.345l-0.02-0.043h3.45
		c1.758,0,3.432-0.275,5.02-0.812s3.037-1.283,4.362-2.259c1.321-0.973,2.465-2.118,3.438-3.445
		c0.968-1.319,1.721-2.775,2.253-4.362c0.533-1.59,0.812-3.262,0.812-5.027c0-1.764-0.278-3.437-0.812-5.026
		c-0.532-1.587-1.285-3.043-2.253-4.362c-0.973-1.328-2.116-2.473-3.438-3.445c-1.325-0.976-2.775-1.727-4.362-2.259
		c-1.59-0.533-3.262-0.812-5.02-0.812H61.748v14.076l-6.607-14.076h-3.77l-6.48,13.924V12.538h-3.77L28.203,24.341L15.242,12.538
		c-2.115,0-4.229,0-6.344,0v5.615H6.867v-4.375H4.458v4.375H2.573v-5.588H0v8.342h11.472v2.14H0v2.753h4.441v4.293H0v2.753h11.472
		v5.35H2.573v-3.49H0V44.39z M125.563,44.39l1.906-4.165h13.004l1.947,4.165h8.344l-0.02-0.043h3.451
		c1.758,0,3.434-0.277,5.02-0.812s3.039-1.285,4.361-2.259c1.32-0.97,2.467-2.119,3.439-3.445c0.965-1.317,1.721-2.777,2.252-4.362
		c0.531-1.587,0.811-3.262,0.811-5.027c0-1.764-0.279-3.439-0.811-5.026c-0.531-1.585-1.287-3.045-2.252-4.362
		c-0.973-1.326-2.119-2.476-3.439-3.445c-1.322-0.974-2.777-1.729-4.361-2.259c-1.588-0.531-3.266-0.812-5.02-0.812H142.42v14.076
		l-6.607-14.076h-3.77L117.219,44.39H125.563z"/>
	<path fill-rule="evenodd" clip-rule="evenodd" fill="#FFCB05" d="M123.583,29.48c-0.367,0.622-0.234,0.378-0.248,0.546
		l-0.053,0.283c-0.131,0.271-0.404,0.189-0.627,0.58c-0.277,0.487-0.232,0.166-0.531,0.586c-0.072,0.103-0.145,0.132-0.266,0.188
		l-0.061,0.029c-0.246,0.139-0.309,0.456-0.486,0.676c-0.207,0.257-0.094,0.008-0.438,0.592c-0.197,0.334-0.35,0.582-0.637,0.823
		l-0.055,0.046c-0.01,0.01-0.043,0.037-0.053,0.046c-0.406,0.347-0.25,0.453-0.438,0.77c0.234,0.166,0.039,0.022,0.166,0.192
		c-0.221,0.372-0.467,0.865-0.742,1.138l-0.312,0.241c-0.391,0.241-0.377,0.632-0.531,0.934c-0.148,0.293-0.516,0.272-0.568,0.609
		c-0.025,0.158-0.018,0.229-0.066,0.376c-0.055,0.163-0.096,0.349-0.105,0.534l-0.045,0.376c-0.004,0.011-0.006,0.023-0.008,0.034
		l-0.027,0.135c-0.021,0.11-0.045,0.204-0.096,0.272c-0.1,0.131-0.303,0.26-0.359,0.378c-0.127,0.257,0.035,0.401-0.176,0.753
		c-0.082,0.136-0.189,0.277-0.236,0.427c-0.035,0.113-0.031,0.186-0.135,0.359c-0.141,0.238-0.209,0.416-0.289,0.67
		c-0.004,0.014-0.008,0.024-0.012,0.039l-0.244,1.27c-0.008,0.291-0.162,0.438-0.236,0.716c-0.055,0.201-0.223,0.388-0.316,0.579
		c-0.158,0.321,0.09,0.087-0.154,0.589l-0.166,0.469c-0.049,0.155,0.004,0.008-0.023,0.103c-0.102,0.364-0.145,0.14-0.082,0.569
		c0.234-0.022,0.316-0.131,0.479-0.297c0.01-0.011,0.018-0.019,0.029-0.029c0.293-0.307,0.594-0.362,0.832-0.618l0.184-0.224
		c0.131-0.15,0.16-0.362,0.352-0.545c0.166-0.158,0.129-0.217,0.309-0.331c0.457-0.289,0.305,0.155,0.977-0.985
		c0.271-0.463,0.406-0.521,0.602-0.86c0.113-0.198,0.166-0.302,0.301-0.438l0.344-0.344c0.389-0.412,0.648-0.343,0.721-0.422
		c0.088-0.147,0.209-0.309,0.25-0.467c0.002-0.013,0.012-0.188,0.01-0.195c-0.012-0.215-0.117-0.232,0.363-0.639l0.205-0.144
		c0.291-0.231,0.293-0.313,0.402-0.636c0.068-0.2,0.029-0.309,0.041-0.482c0.051-0.854,0.635-0.776,0.93-1.165
		c0.152-0.203,0.141-0.311,0.338-0.487c0.08-0.071,0.17-0.22,0.203-0.35c0.004-0.011,0.006-0.022,0.008-0.034l0.021-0.071
		c0.064-0.204,0.059-0.04,0.051-0.25l-0.016-0.232c-0.021-0.212,0.012-0.314,0.16-0.502c0.123-0.155,0.387-0.376,0.404-0.668
		c0.012-0.197-0.041-0.365-0.006-0.567c0.074-0.436,0.602-0.941,0.686-1.336c0.066-0.31-0.006-0.349,0.107-0.768
		c0.246-0.927,1.203-2.067,1.346-2.605l0.018-0.077c0.051-0.242,0.086-0.347,0.23-0.593c0.174-0.292,0.037-0.218,0.201-0.509
		c0.104-0.182,0.221-0.37,0.33-0.551c0.225-0.379,0.209-0.487,0.371-0.787c0.082-0.15,0.08-0.216,0.09-0.258
		c0.113-0.45,0.422-0.579,0.693-1.354l0.186-0.54c0.004-0.012,0.006-0.023,0.01-0.036c0.025-0.094-0.047,0.012,0.053-0.193
		c-0.09-0.004-0.223,0.03-0.326,0.125c-0.111,0.103-0.158,0.231-0.24,0.366c-0.094,0.153-0.17,0.179-0.252,0.277
		c-0.107,0.127-0.145,0.273-0.266,0.396c-0.121,0.121,0.006-0.045-0.131,0.118l-0.395,0.488c-0.145,0.179-0.105,0.05-0.256,0.276
		c-0.086,0.13-0.164,0.31-0.254,0.435c-0.164,0.229-0.078,0.008-0.254,0.27c-0.094,0.138-0.117,0.249-0.242,0.355
		c-0.164,0.138-0.465,0.249-0.611,0.351c-0.143,0.099-0.174,0.466-0.352,0.703c-0.115,0.151-0.27,0.206-0.396,0.343
		C123.633,29.461,123.659,29.353,123.583,29.48 M112.303,28.003c-0.184,0.31-0.256,0.396-0.281,0.741
		c-0.023,0.327-0.057,0.978-0.494,1.029c-0.01,0.001-0.023,0.001-0.033,0.001s-0.023-0.002-0.035-0.001
		c-0.117,0.001-0.172,0.017-0.219,0.05c-0.506,0.364-0.422,0.938-0.578,1.468l-0.07,0.247c-0.129,0.41-0.242,0.582-0.514,0.87
		l-0.355,0.323c-0.018,0.012-0.084,0.054-0.086,0.056l-0.217,0.181c-0.158,0.124-0.264,0.117-0.475,0.098
		c-0.496,0.751-0.174,0.477-0.303,0.819c-0.215,0.574-0.449-0.063-0.514,0.98l-0.182,0.948c-0.023,0.074-0.027,0.087-0.066,0.161
		c-0.039,0.075-0.094,0.156-0.152,0.216c-0.012,0.013-0.172,0.122-0.176,0.124l-0.262,0.148c-0.01,0.009-0.041,0.036-0.051,0.045
		l-0.066,0.102c-0.004,0.012-0.02,0.076-0.029,0.1c-0.225,0.587,0.107,0.321-0.287,0.989c-0.062,0.104-0.09,0.069-0.232,0.22
		c-0.305,0.318-0.117,0.055-0.439,0.601c-0.092,0.153-0.127,0.561-0.443,0.853c-0.014,0.013-0.129,0.116-0.207,0.241
		c-0.217,0.352-0.168,0.388-0.26,0.599L105.12,40.6c-0.006,0.016-0.008,0.025-0.014,0.04l-0.115,0.231
		c-0.098,0.231-0.02,0.179-0.264,0.595c-0.053,0.09-0.129,0.236-0.189,0.313c-0.186,0.243-0.045,0.002-0.207,0.202
		c-0.09,0.112-0.176,0.344-0.199,0.434l-0.119,0.296c-0.004,0.01-0.018,0.133-0.018,0.134c-0.004,0.189-0.004-0.039,0.008,0.133
		c0.01,0.124,0.029,0.176-0.073,0.288c-0.009,0.01-0.018,0.021-0.028,0.03c-0.097,0.097-0.212,0.137-0.316,0.208
		c-0.12,0.081-0.23,0.256-0.33,0.396l-0.037,0.056c-0.34,0.602,0.08,0.452-0.229,1.086c-0.127,0.262-0.074,0.288-0.232,0.552
		c-0.106,0.177-0.218,0.427-0.361,0.531c-0.009,0.006-0.021,0.012-0.029,0.018l-0.17,0.106c-0.091,0.088-0.105,0.143-0.12,0.253
		l-0.006,0.135c-0.008,0.17,0.037,0.23,0.105,0.378c-0.084,0.214-0.069,0.289-0.183,0.507c-0.094,0.181-0.24,0.373-0.33,0.553
		c-0.136,0.273-0.142,0.481-0.254,0.748l-0.262,0.681c-0.037,0.146-0.081,0.208-0.095,0.355c-0.06,0.608-0.4,0.969-0.294,1.273
		c0.133,0.039,0.173-0.001,0.286-0.061l0.087-0.042c0.172-0.074,0.255-0.167,0.394-0.308l0.051-0.047
		c0.145-0.14,0.264-0.271,0.438-0.345l0.265-0.148c0.546-0.344,0.046-0.625,0.4-1.143c0.085-0.124,0.165-0.201,0.308-0.223
		c0.456-0.07,0.409-0.104,0.741-0.38c0.227-0.188,0.424-0.548,0.444-0.841l0.025-0.277c0.008-0.051,0.01-0.054,0.021-0.107
		l0.094-0.201c0.266-0.264,0.312-0.104,0.613-0.111c0.102-0.002,0.061,0.007,0.131-0.026l0.088-0.062
		c0.143-0.118,0.088-0.137,0.158-0.296c0.205-0.473-0.012-0.146,0.025-0.582c0.029-0.357,0.346-0.462,0.439-0.708
		c0.072-0.189-0.018,0.002,0.037-0.174c0.119-0.39,0.795-0.902,0.906-1.089l0.348-0.588c0.047-0.08,0.031-0.146,0.09-0.345
		l0.102-0.357c0.115-0.453,0.295-0.248,0.592-0.474c0.158-0.12,0.285-0.26,0.344-0.458c0.002-0.011,0.004-0.023,0.006-0.034
		l0.094-0.327c0.074-0.406-0.029-0.336,0.443-0.796c0.113-0.11,0,0.053,0.156-0.15c0.152-0.196,0.195-0.433,0.428-0.503
		c0.146-0.045,0.242-0.101,0.357-0.197c0.113-0.095,0.211-0.149,0.262-0.302l0.164-0.781c0.004-0.012,0.006-0.023,0.008-0.035
		l0.021-0.105c0.055-0.274,0.176-0.475,0.338-0.747c0.213-0.362,0.373-0.236,0.635-0.483c0.342-0.322,0.271-0.722,0.367-1.139
		c0.086-0.375,0.229-0.229,0.312-0.812c0.078-0.548,0.52-0.66,0.771-1.089c0.33-0.562,0.717-1.127,0.762-1.771
		c0.016-0.204-0.016-0.131,0.115-0.356c0.145-0.25,0.299-0.497,0.443-0.747c0.176-0.3,0.303-0.346,0.465-0.622
		c0.146-0.249,0.295-0.499,0.439-0.749c0.434-0.756,0.35,0.021,0.814-0.898c0.092-0.183,0.043-0.236,0.047-0.422
		c0.01-0.418,0.08-0.432,0.344-0.878c0.148-0.251,0.566-1.098,0.803-1.261c0.23-0.161,0.426-0.054,0.475-0.375
		c0.045-0.31-0.027-0.359,0.068-0.677l0.023-0.203c-0.008-0.146-0.094-0.152,0.043-0.346c0.127-0.181,0.361-0.277,0.475-0.725
		c0.125-0.504,0.082-0.405,0.309-0.639c0.129-0.13,0.361-0.578,0.469-0.762c0.529-0.901,0.693-0.441,0.863-1.42
		c0.025-0.145,0.033-0.224,0.088-0.346c0.268-0.587,1.07-1.751,1.441-2.436c0.104-0.194,0.02-0.164,0.133-0.393
		c0.32-0.642,0.127-0.361,0.289-0.786c0.076-0.205,0.338-0.577,0.459-0.787c0.15-0.262,0.068-0.288,0.365-0.785
		c0.074-0.121,0.172-0.257,0.217-0.388c0.051-0.147,0.057-0.238,0.152-0.397c0.168-0.28,0.283-0.492,0.352-0.794
		c-0.238-0.142-0.443,0.309-0.762,0.632l-0.189,0.229c-0.121,0.175-0.074,0.094-0.172,0.188c-0.166,0.159-0.186,0.321-0.371,0.491
		l-0.174,0.216c-0.051,0.085-0.104,0.197-0.166,0.272l-0.738,0.774c-0.139,0.167-0.234,0.25-0.369,0.483l-0.535,0.657
		c-0.332,0.303-0.199,0.206-0.439,0.504c-0.125,0.155-0.029,0.027-0.104,0.097l-0.445,0.557c-0.109,0.116-0.158,0.277-0.266,0.396
		c-0.148,0.165-0.027-0.034-0.18,0.173l-0.369,0.47c-0.029,0.038-0.037,0.057-0.072,0.097c-0.129,0.145-0.164,0.153-0.275,0.33
		l-0.205,0.225c-0.203,0.202-0.471,0.793-0.652,1.07c-0.15,0.23-0.197,0.14-0.352,0.424c-0.158,0.286-0.16,0.535-0.352,0.735
		c-0.008,0.009-0.018,0.017-0.027,0.025c-0.191,0.176-0.508,0.173-0.598,0.445c-0.037,0.112-0.002,0.339-0.039,0.479
		c-0.074,0.285-0.492,0.806-0.705,0.985l-0.189,0.155c-0.211,0.195-0.332,0.55-0.494,0.784c-0.262,0.376-0.33,0.037-0.523,0.765
		c-0.039,0.148,0.027-0.034-0.031,0.135c-0.039,0.117-0.09,0.167-0.131,0.272c-0.113,0.286,0.07,0.317-0.305,0.548
		c-0.127,0.079-0.041,0.061-0.209,0.102c-0.018,0.004-0.105,0.012-0.127,0.013c-0.037,0.001-0.027,0-0.066,0L112.303,28.003z
		 M83.886,39.204c0.247,0.146,0.341,0.088,0.608-0.221c0.154-0.179,0.202-0.449,0.393-0.525c0.262-0.104,0.236-0.021,0.464-0.293
		c0.104-0.125,0.062-0.134,0.198-0.236l0.056-0.034c0.009-0.006,0.021-0.012,0.029-0.017c0.292-0.175,0.343-0.322,0.58-0.493
		l0.343-0.182c0.072-0.062,0.036-0.023,0.098-0.112c0.195-0.283,0.331-0.669,0.561-0.932c0.113-0.13,0.085-0.035,0.226-0.242
		c0.118-0.174,0.243-0.468,0.37-0.619c0.224-0.267,0.091-0.02,0.394-0.523c0.122-0.203,0.17-0.202,0.302-0.344l0.108-0.105
		c0.264-0.197,0.171-0.046,0.401-0.443c0.208-0.358,0.396-0.769,0.65-1.098c0.174-0.224,0.413-0.273,0.522-0.584
		c0.054-0.151-0.003-0.08,0.029-0.278c0.031-0.186,0.225-0.452,0.271-0.639c0.039-0.156,0.076-0.191,0.192-0.308
		c0.011-0.011,0.02-0.017,0.03-0.027c0.011-0.012,0.019-0.019,0.029-0.029s0.019-0.02,0.028-0.03
		c0.045-0.049,0.054-0.07,0.101-0.115l0.051-0.044c0.115-0.088,0.163-0.078,0.292-0.14l0.086-0.048
		c0.009-0.005,0.02-0.013,0.027-0.019c0.31-0.22,0.938-1.225,1.044-1.577c0.117-0.388,0.703-1.423,0.981-1.76
		c0.151-0.184,0.059,0,0.228-0.239c0.065-0.092,0.12-0.223,0.185-0.315c0.172-0.246,0.041-0.013,0.204-0.202
		c0.173-0.201,0.141-0.254,0.396-0.515c0.281-0.288,0.658-0.621,0.786-1.046c0.067-0.221,0.219-0.409,0.289-0.616
		c0.061-0.176-0.082-0.036,0.086-0.276c0.113-0.161,0.148-0.097,0.395-0.517c0.302-0.516,0.98-1.876,1.368-2.113l0.341-0.21
		c0.04-0.032,0.026,0.023,0.088-0.098c0.06-0.12,0.034-0.164,0.065-0.311c0.002-0.011,0.004-0.023,0.007-0.034
		c0.002-0.011,0.004-0.023,0.007-0.034l0.253-0.69c0.042-0.135,0.084-0.253,0.181-0.338c0.183-0.163,0.234-0.291,0.299-0.528
		c0.035-0.128,0.078-0.178,0.114-0.298c0.009-0.033,0.054-0.258,0.063-0.306c0.07-0.337,0.136-0.388,0.238-0.735
		c0.027-0.091,0.004-0.047,0.057-0.156c0.045-0.093,0.131-0.221,0.187-0.314c0.188-0.315,1.296-2.05,1.364-2.405
		c0.003-0.014,0.01-0.055,0.013-0.069c0.172-0.947,0.7-0.705,0.721-1.214c0.008-0.181-0.003-0.175,0.1-0.354
		c0.281-0.493,0.666-1.008,0.836-1.542c0.136-0.426,0.658-1.009,0.837-1.563c0.169-0.529,1.484-2.439,1.855-3.177
		c0.127-0.249,0.051-0.24,0.256-0.592c0.139-0.233,0.078-0.371,0.252-0.582c0.158-0.191,0.049,0.011,0.209-0.203
		c0.215-0.288,0.252-0.597,0.438-0.902c0.205-0.336,0.145-0.398,0.287-0.64c-0.422-0.197-0.707,0.414-0.871,0.578l-0.342,0.329
		c-0.025,0.021-0.08,0.058-0.109,0.078l-0.141,0.094c-0.117,0.091-0.172,0.134-0.254,0.248c-0.096,0.134-0.096,0.192-0.213,0.305
		l-0.361,0.378c-0.515,0.437-0.551,0.745-1.032,1.037c-0.081,0.049-0.191,0.111-0.246,0.17c-0.049,0.053-0.056,0.078-0.098,0.131
		c-0.01,0.013-0.017,0.021-0.026,0.034c-0.179,0.21-0.34,0.433-0.526,0.754c-0.252,0.438-0.387,0.375-0.761,0.744
		c-0.011,0.011-0.02,0.017-0.03,0.028c-0.181,0.179-0.176,0.371-0.271,0.557c-0.12,0.236-0.366,0.453-0.651,0.943
		c-0.196,0.337-0.334,0.302-0.593,0.461c-0.391,0.239-0.199,0.144-0.277,0.357c-0.082,0.225-0.332,0.672-0.521,0.852l-0.189,0.157
		c-0.335,0.259-0.321,0.194-0.596,0.587c-0.133,0.19-0.354,0.369-0.459,0.494c-0.161,0.192-0.011,0.229-0.188,0.409
		c-0.008,0.007-0.019,0.015-0.026,0.022c-0.163,0.154-0.449,0.377-0.556,0.522c-0.226,0.306-0.284,0.525-0.543,0.798
		c-0.144,0.151-0.231,0.359-0.28,0.532c-0.038,0.139-0.069,0.219-0.18,0.337l-0.48,0.365c-0.179,0.114-0.301,0.35-0.483,0.481
		c-0.082,0.06-0.195,0.062-0.269,0.096c-0.27,0.127-0.193,0.942-0.294,1.189c-0.057,0.138-0.312,0.371-0.441,0.49
		c-0.168,0.154-0.228,0.261-0.257,0.483c-0.002,0.012-0.003,0.025-0.005,0.037c-0.028,0.327,0.168,0.235-0.051,0.603
		c-0.122,0.208-0.074,0.167-0.232,0.235c-0.009,0.003-0.021,0.007-0.03,0.01c-0.073,0.03-0.18,0.071-0.226,0.126
		c-0.122,0.147-0.022,0.016-0.048,0.138c-0.086,0.409,0.012,0.701-0.465,0.858c-0.128,0.042-0.116,0.048-0.231,0.159
		c-0.34,0.327-0.021,0.516-0.631,0.774l-0.229,0.14c-0.148,0.166,0.052,0.275-0.053,0.718c-0.003,0.012-0.007,0.024-0.01,0.035
		c-0.002,0.011-0.005,0.023-0.007,0.034l0.012,0.391c-0.001,0.151,0.007,0.146-0.099,0.343c-0.136,0.253-0.31,0.343-0.483,0.528
		l-0.299,0.362c-0.221,0.215-0.399,0.599-0.547,0.871c-0.095,0.175-0.056,0.253-0.086,0.414c-0.039,0.207-0.058,0.366-0.224,0.541
		l-0.325,0.322c-0.311,0.311-0.684,0.832-0.794,1.249c-0.066,0.25-0.138,0.396-0.254,0.655c-0.077,0.168-0.039,0.117-0.063,0.198
		c-0.115,0.394-0.429,0.599-0.617,0.938l-0.121,0.313c-0.064,0.26,0.045,0.592-0.078,0.769l-0.139,0.15
		c-0.042,0.049-0.058,0.082-0.101,0.13c-0.14,0.155,0.006-0.024-0.13,0.116c-0.188,0.195-0.59,0.897-0.604,1.129
		c-0.02,0.32-0.257,0.641-0.456,0.84c-0.17,0.17-0.181,0.331-0.234,0.484c-0.076,0.217-0.261,0.314-0.341,0.511
		c-0.004,0.012-0.007,0.024-0.011,0.036l-0.185,0.55c-0.068,0.165-0.03,0.276-0.084,0.443c-0.004,0.013-0.01,0.024-0.014,0.037
		l-0.04,0.144c-0.048,0.187-0.061,0.155-0.149,0.327c-0.125,0.242-0.033,0.15-0.12,0.354c-0.095,0.224-0.308,0.48-0.411,0.705
		c-0.086,0.185-0.062,0.426-0.161,0.595c-0.132,0.223-0.423,0.354-0.437,0.746l-0.097,0.985c0.001,0.008,0.003,0.026,0.003,0.032
		C83.883,39.177,83.883,39.192,83.886,39.204z M112.52,9.751c-0.229-0.017-0.396,0.038-0.52,0.238
		c-0.113,0.184-0.328,0.525-0.414,0.711c-0.135,0.288,0.074,0.048-0.1,0.298c-0.193,0.278-0.564,0.35-0.736,0.635
		c-0.162,0.268-0.512,0.761-0.594,1.054c-0.143,0.507-0.102,0.125-0.562,0.912c-0.453,0.769-0.797,0.91-0.893,1.252
		c-0.068,0.245-0.154,0.503-0.412,0.544c-0.35,0.054-0.061-0.093-0.543,0.228l-0.256,0.153c-0.201,0.08-0.559,0.06-0.621,0.314
		l-0.078,0.725c-0.002,0.014-0.008,0.054-0.01,0.068l-0.014,0.069c0,0-0.033,0.17-0.033,0.173c-0.174,0.657-0.793,0.357-0.783,0.931
		l0.004,0.067c0.033,0.488,0.156,0.42-0.107,0.867c-0.641,0.037-0.098,0.291-0.373,0.796c-0.316,0.581-0.441,0.262-0.605,0.387
		c-0.264,0.445-0.523,0.894-0.789,1.335c-0.25,0.412-0.122,0.372-0.155,0.727c-0.008,0.076-0.015,0.093-0.018,0.178
		c-0.004,0.135,0.021,0.168,0.024,0.291c0.008,0.365-0.372,0.609-0.599,0.841l-0.053,0.052c-0.144,0.135-0.256,0.381-0.424,0.536
		l-0.374,0.451c-0.006,0.01-0.011,0.021-0.016,0.031c-0.094,0.204,0.041-0.15-0.022,0.07c-0.071,0.247-0.04,0.53-0.47,0.68
		c-0.082,0.029,0.003-0.023-0.124,0.033c-0.109,0.048,0.005-0.02-0.111,0.076c-0.432,0.356-0.502,0.484-0.637,0.992
		c-0.003,0.011-0.004,0.023-0.006,0.034l-0.119,0.295c-0.019,0.082,0.018,0.139,0.015,0.256c-0.007,0.247-0.067,0.438-0.2,0.662
		c-0.07,0.119-0.141,0.236-0.211,0.355c-0.302,0.523-0.506,0.359-0.717,0.588c-0.053,0.058-0.162,0.265-0.209,0.345l0.056,0.119
		c0.019,0.039,0.05,0.113,0.058,0.147c0.027,0.127,0.014,0.051,0.011,0.167c0,0.022-0.007,0.116-0.01,0.163
		c-0.077,0.068-0.184,0.122-0.259,0.133l-0.47,0.137c-0.135,0.064-0.033-0.07-0.175,0.145c-0.155,0.235-0.118,0.432-0.218,0.678
		c-0.2,0.499,0.039,0.556-0.221,0.867c-0.108,0.129-0.453,0.233-0.639,0.294l-0.095,0.035c-0.138,0.052-0.167,0.289-0.176,0.418
		c-0.021,0.295-0.169,0.979-0.253,1.241c-0.192,0.602-0.091,0.258-0.197,0.802c-0.021,0.109-0.02,0.175-0.076,0.28l-0.147,0.172
		c-0.304,0.23-0.677,0.203-0.683,0.916c-0.001,0.148,0.021,0.147,0.017,0.28c-0.014,0.008-0.058,0.038-0.066,0.044
		c-0.165,0.106-0.283,0.091-0.397,0.262l-0.312,0.421c-0.087,0.103-0.029,0.004-0.075,0.132c-0.269,0.751-0.459,0.386-0.839,0.784
		c-0.066,0.069-0.054,0.084-0.069,0.156c-0.145,0.648,0.269,0.333-0.326,1.261c-0.073,0.115-0.146,0.176-0.207,0.229
		c-0.037,0.032-0.063,0.06-0.107,0.096c-0.319,0.268-0.468,0.113-0.468,0.628c0,0.006,0.008,0.072,0.007,0.104
		s0.007,0.009-0.011,0.111c-0.068,0.389-0.472,0.551-0.528,1.091c-0.014,0.127,0.039,0.22,0.079,0.374
		c0.073,0.274-0.06,0.275-0.073,0.554L92.78,42.34c-0.028,0.14-0.034,0.107-0.125,0.185c-0.228,0.194-0.482,0.362-0.562,0.658
		c-0.026,0.095-0.05,0.128-0.071,0.221c-0.015,0.062-0.017,0.174-0.02,0.229c-0.017,0.329-0.149,0.688-0.341,0.969
		c-0.231,0.339-0.453,0.024-0.7,0.536c-0.058,0.119-0.027,0.413-0.103,0.758l-0.026,0.245c0.01,0.143,0.036,0.161-0.07,0.283
		c-0.077,0.087-0.226,0.227-0.33,0.409c-0.039,0.068-0.096,0.177-0.138,0.238c-0.159,0.229-0.072,0.071-0.182,0.18
		c-0.104,0.105-0.251,0.332-0.271,0.474c-0.007,0.052,0.016,0.149,0.015,0.188c-0.006,0.264-0.145,0.529-0.327,0.7
		c-0.318,0.3-0.241,0.165-0.373,0.618c-0.004,0.015-0.005,0.025-0.01,0.039c-0.089,0.295-0.336,0.581-0.477,0.862
		c-0.124,0.245-0.024,0.083-0.07,0.242c-0.073,0.253-0.285,0.447-0.439,0.972l-0.447,1.186c-0.037,0.1-0.103,0.188-0.157,0.278
		c-0.089,0.148-0.134,0.278-0.117,0.449c0.306-0.082,0.307-0.251,0.542-0.477l0.251-0.31c0.129-0.165,0.297-0.275,0.457-0.405
		l0.117-0.085c0.009-0.006,0.02-0.012,0.028-0.017l0.057-0.034c0.215-0.129,0.216-0.271,0.439-0.339
		c0.514-0.156,0.465-0.565,0.81-0.72c0.334-0.148,0.178-0.045,0.521-0.625c0.307-0.521,0.269-0.691,0.483-1.14
		c0.198-0.413-0.059-0.444,0.679-0.782l0.234-0.106c0.41-0.232,0.325-0.418,0.583-0.6c0.161-0.113,0.296-0.202,0.363-0.417
		l0.224-0.55c0.025-0.087,0.06-0.224,0.141-0.359c0.158-0.269,0.265-0.415,0.495-0.642c0.009-0.009,0.018-0.017,0.026-0.025
		c0.009-0.007,0.019-0.015,0.026-0.022l0.195-0.249c0.163-0.276,0.152-0.212,0.345-0.357l0.061-0.05
		c0.312-0.306,0.333-0.765,0.758-1.036c0.086-0.055,0.012,0.033,0.113-0.091c0.1-0.123,0.069-0.225,0.229-0.542l0.058-0.151
		c0.09-0.334,0.663-1.335,0.928-1.555c0.029-0.024,0.052-0.047,0.083-0.068c0.424-0.293,0.534-0.163,0.704-1.015l0.129-0.495
		c0.034-0.137,0.124-0.296,0.213-0.377l0.608-0.59c0.187-0.163,0.316-0.382,0.43-0.608c0.036-0.071,0.007-0.003,0.038-0.081
		c0.006-0.016,0.008-0.024,0.013-0.04c0.044-0.131-0.017-0.113,0.09-0.264l0.146-0.142c0.111-0.118,0.143-0.24,0.245-0.348
		c0.109-0.114-0.007,0.04,0.133-0.115c0.049-0.054,0.085-0.119,0.122-0.182l0.694-1.18c0.149-0.255,0.256-0.442,0.508-0.588
		c0.189-0.109,0.377-0.341,0.442-0.605c0.033-0.131-0.101,0.063,0.051-0.166l0.048-0.054c0.011-0.011,0.075-0.055,0.088-0.062
		l0.31-0.109c0.146-0.076,0.137-0.183,0.244-0.327c0.18-0.238,0.406-0.098,0.403-0.536c-0.004-0.422-0.321-0.617,0.419-0.945
		c0.009-0.004,0.021-0.01,0.03-0.014l0.26-0.158c0.097-0.079,0.039,0.031,0.117-0.146c0.124-0.281-0.012-0.463,0.058-0.751
		l0.015-0.068c0.061-0.217,0.129-0.267,0.11-0.502c-0.001-0.009-0.003-0.022-0.003-0.032c-0.023-0.464,0.395-0.586,0.698-0.92
		c0.061-0.067,0.07-0.105,0.123-0.168c0.158-0.193,0.383-0.113,0.619-0.224c0.439-0.205-0.033-0.569,0.045-0.869
		c0.09-0.342,0.314-0.452,0.359-0.919l0.002-0.067c0.021-0.386,0.072-0.424,0.291-0.792c0.627-1.06,0.742-0.865,0.949-1.135
		c0.178-0.232,0.264-0.544,0.473-0.748c0.223-0.216,0.307-0.148,0.611-0.138c0.467-0.787,0.119-0.385,0.17-0.955
		c0.021-0.251,0.211-0.407,0.268-0.644c0.076-0.325,0.309-0.438,0.475-0.728c0.033-0.059,0.072-0.122,0.09-0.185l0.031-0.396
		c0.016-0.356,0.131-0.374,0.221-0.667c0.004-0.011,0.004-0.023,0.008-0.034c0.025-0.1-0.025,0.046,0.018-0.103
		c0.021-0.078,0.064-0.165,0.115-0.234c0.188-0.257,0.529-0.312,0.816-0.355c0.168-0.026,0.086,0.006,0.197-0.001
		c0.225-0.016,0.084-0.059,0.336-0.134c0.367-0.108,0.34-0.319,0.352-0.634c0.006-0.199,0.207-0.605,0.383-0.802
		c0.232-0.261,0.123,0.025,0.285-0.491c0.074-0.234,0.061-0.001,0.039-0.22c-0.01-0.096-0.076-0.226-0.076-0.344
		c0-0.234,0.092-0.263,0.115-0.47c0.1-0.902-0.1-0.11,0.275-1.136c0.137-0.375,1.029-1.738,1.291-2.199
		c0.146-0.259,0.045-0.311,0.094-0.551c0.002-0.01,0.004-0.024,0.008-0.033c0.037-0.157-0.021-0.049,0.082-0.146l0.055-0.042
		c0.143-0.117,0.279-0.218,0.355-0.401l0.252-0.791c0.033-0.108-0.023-0.031,0.076-0.237c0.066-0.14,0.188-0.293,0.258-0.433
		l0.195-0.571c0.027-0.107-0.006-0.062,0.076-0.215c0.205-0.378,0.324-0.488,0.445-0.875c0.092-0.296,1.031-1.777,1.252-2.147
		c0.07-0.121,0.199-0.311,0.25-0.432c0.08-0.182,0.059-0.255,0.188-0.473c0.26-0.438,1.201-1.878,1.314-2.322
		c0.092-0.361,0.508-0.782,0.607-1.121c0.156-0.532,0.643-1.211,0.953-1.738c0.232-0.394,0.559-0.863,0.678-1.27
		c0.045-0.153,0.166-0.298,0.227-0.455c-0.172-0.083-0.209-0.022-0.332,0.085c-0.01,0.008-0.02,0.016-0.027,0.023l-1.17,1.403
		c-0.15,0.192-0.381,0.377-0.508,0.551c-0.279,0.378-0.018,0.086-0.486,0.658l-0.637,0.707c-0.186,0.177-0.432,0.653-0.623,0.847
		c-0.117,0.119-0.152,0.259-0.471,0.616l-0.254,0.28c-0.115,0.118-0.254,0.379-0.371,0.492c-0.084,0.08-0.049,0.051-0.123,0.148
		c-0.182,0.237-0.363,0.188-0.572,0.38c-0.221,0.204-0.602,1.1-1.078,1.607c-0.01,0.011-0.018,0.02-0.027,0.03l-0.09,0.085
		c-0.146,0.146-0.168,0.188-0.186,0.36c-0.023,0.217-0.012,0.326-0.205,0.546c-0.158,0.181-0.025,0.008-0.133,0.117
		C112.838,9.135,112.647,9.536,112.52,9.751z"/>
</g>
</svg>
